<?xml version="1.0" encoding="UTF-8"?>
<svg xmlns="http://www.w3.org/2000/svg" xmlns:xlink="http://www.w3.org/1999/xlink" width="854" height="480" viewBox="0 0 854 480">
<defs>
<g>
<g id="glyph-0-0">
<path d="M 1.4375 0.0625 C 1.0625 0.0625 0.773438 -0.0078125 0.578125 -0.15625 C 0.378906 -0.3125 0.28125 -0.515625 0.28125 -0.765625 C 0.28125 -0.878906 0.316406 -0.972656 0.390625 -1.046875 C 0.460938 -1.117188 0.566406 -1.15625 0.703125 -1.15625 C 0.710938 -1 0.742188 -0.847656 0.796875 -0.703125 C 0.847656 -0.554688 0.929688 -0.441406 1.046875 -0.359375 C 1.160156 -0.273438 1.304688 -0.234375 1.484375 -0.234375 C 1.742188 -0.234375 1.945312 -0.296875 2.09375 -0.421875 C 2.238281 -0.546875 2.3125 -0.726562 2.3125 -0.96875 C 2.3125 -1.101562 2.285156 -1.21875 2.234375 -1.3125 C 2.179688 -1.414062 2.085938 -1.507812 1.953125 -1.59375 C 1.828125 -1.6875 1.648438 -1.78125 1.421875 -1.875 C 1.054688 -2.019531 0.785156 -2.191406 0.609375 -2.390625 C 0.429688 -2.585938 0.34375 -2.847656 0.34375 -3.171875 C 0.34375 -3.390625 0.394531 -3.578125 0.5 -3.734375 C 0.613281 -3.890625 0.765625 -4.007812 0.953125 -4.09375 C 1.148438 -4.175781 1.375 -4.21875 1.625 -4.21875 C 1.96875 -4.21875 2.234375 -4.148438 2.421875 -4.015625 C 2.609375 -3.890625 2.703125 -3.738281 2.703125 -3.5625 C 2.703125 -3.4375 2.660156 -3.34375 2.578125 -3.28125 C 2.492188 -3.21875 2.382812 -3.1875 2.25 -3.1875 C 2.25 -3.3125 2.226562 -3.425781 2.1875 -3.53125 C 2.144531 -3.644531 2.078125 -3.738281 1.984375 -3.8125 C 1.890625 -3.882812 1.757812 -3.921875 1.59375 -3.921875 C 1.375 -3.921875 1.203125 -3.859375 1.078125 -3.734375 C 0.953125 -3.617188 0.890625 -3.460938 0.890625 -3.265625 C 0.890625 -3.109375 0.914062 -2.972656 0.96875 -2.859375 C 1.03125 -2.753906 1.125 -2.660156 1.25 -2.578125 C 1.382812 -2.492188 1.566406 -2.40625 1.796875 -2.3125 C 2.128906 -2.175781 2.390625 -2.015625 2.578125 -1.828125 C 2.773438 -1.648438 2.875 -1.410156 2.875 -1.109375 C 2.875 -0.742188 2.742188 -0.457031 2.484375 -0.25 C 2.222656 -0.0390625 1.875 0.0625 1.4375 0.0625 Z "/>
</g>
<g id="glyph-0-1">
<path d="M 0.15625 0 L 0.15625 -0.25 L 0.234375 -0.25 C 0.367188 -0.25 0.476562 -0.269531 0.5625 -0.3125 C 0.644531 -0.363281 0.6875 -0.484375 0.6875 -0.671875 L 0.6875 -2.484375 C 0.6875 -2.648438 0.644531 -2.753906 0.5625 -2.796875 C 0.476562 -2.847656 0.367188 -2.875 0.234375 -2.875 L 0.21875 -2.875 L 0.21875 -3.125 L 1.140625 -3.125 L 1.21875 -2.65625 L 1.234375 -2.65625 C 1.359375 -2.875 1.492188 -3.015625 1.640625 -3.078125 C 1.785156 -3.148438 1.945312 -3.1875 2.125 -3.1875 C 2.3125 -3.1875 2.476562 -3.144531 2.625 -3.0625 C 2.78125 -2.976562 2.894531 -2.84375 2.96875 -2.65625 L 3.015625 -2.65625 C 3.128906 -2.875 3.265625 -3.015625 3.421875 -3.078125 C 3.578125 -3.148438 3.742188 -3.1875 3.921875 -3.1875 C 4.222656 -3.1875 4.457031 -3.09375 4.625 -2.90625 C 4.789062 -2.726562 4.875 -2.441406 4.875 -2.046875 L 4.875 -0.671875 C 4.875 -0.484375 4.914062 -0.363281 5 -0.3125 C 5.082031 -0.269531 5.191406 -0.25 5.328125 -0.25 L 5.34375 -0.25 L 5.34375 0 L 4.328125 0 L 4.328125 -2.015625 C 4.328125 -2.265625 4.28125 -2.457031 4.1875 -2.59375 C 4.101562 -2.738281 3.945312 -2.8125 3.71875 -2.8125 C 3.5625 -2.8125 3.429688 -2.769531 3.328125 -2.6875 C 3.234375 -2.601562 3.164062 -2.492188 3.125 -2.359375 C 3.09375 -2.234375 3.078125 -2.09375 3.078125 -1.9375 L 3.078125 -0.671875 C 3.078125 -0.484375 3.117188 -0.363281 3.203125 -0.3125 C 3.285156 -0.269531 3.390625 -0.25 3.515625 -0.25 L 3.53125 -0.25 L 3.53125 0 L 2.53125 0 L 2.53125 -2.015625 C 2.53125 -2.265625 2.484375 -2.457031 2.390625 -2.59375 C 2.296875 -2.738281 2.132812 -2.8125 1.90625 -2.8125 C 1.738281 -2.8125 1.601562 -2.765625 1.5 -2.671875 C 1.40625 -2.585938 1.335938 -2.472656 1.296875 -2.328125 C 1.253906 -2.179688 1.234375 -2.023438 1.234375 -1.859375 L 1.234375 -0.640625 C 1.234375 -0.460938 1.28125 -0.351562 1.375 -0.3125 C 1.46875 -0.269531 1.582031 -0.25 1.71875 -0.25 L 1.734375 -0.25 L 1.734375 0 Z "/>
</g>
<g id="glyph-0-2">
<path d="M 0.9375 -3.703125 C 0.84375 -3.703125 0.765625 -3.726562 0.703125 -3.78125 C 0.640625 -3.84375 0.609375 -3.9375 0.609375 -4.0625 C 0.609375 -4.195312 0.640625 -4.289062 0.703125 -4.34375 C 0.765625 -4.394531 0.84375 -4.421875 0.9375 -4.421875 C 1.03125 -4.421875 1.109375 -4.394531 1.171875 -4.34375 C 1.234375 -4.289062 1.265625 -4.195312 1.265625 -4.0625 C 1.265625 -3.9375 1.234375 -3.84375 1.171875 -3.78125 C 1.109375 -3.726562 1.03125 -3.703125 0.9375 -3.703125 Z M 0.140625 0 L 0.140625 -0.25 L 0.203125 -0.25 C 0.335938 -0.25 0.453125 -0.269531 0.546875 -0.3125 C 0.640625 -0.351562 0.6875 -0.460938 0.6875 -0.640625 L 0.6875 -2.484375 C 0.6875 -2.648438 0.640625 -2.753906 0.546875 -2.796875 C 0.453125 -2.847656 0.335938 -2.875 0.203125 -2.875 L 0.1875 -2.875 L 0.1875 -3.125 L 1.234375 -3.125 L 1.234375 -0.671875 C 1.234375 -0.484375 1.28125 -0.363281 1.375 -0.3125 C 1.46875 -0.269531 1.582031 -0.25 1.71875 -0.25 L 1.796875 -0.25 L 1.796875 0 Z "/>
</g>
<g id="glyph-0-3">
<path d="M 1.40625 0.0625 C 1.101562 0.0625 0.882812 -0.00390625 0.75 -0.140625 C 0.613281 -0.273438 0.546875 -0.507812 0.546875 -0.84375 L 0.546875 -2.796875 L 0.109375 -2.796875 L 0.109375 -3.03125 C 0.179688 -3.03125 0.257812 -3.039062 0.34375 -3.0625 C 0.425781 -3.09375 0.5 -3.144531 0.5625 -3.21875 C 0.632812 -3.28125 0.691406 -3.363281 0.734375 -3.46875 C 0.773438 -3.570312 0.804688 -3.695312 0.828125 -3.84375 L 1.09375 -3.84375 L 1.09375 -3.125 L 1.859375 -3.125 L 1.859375 -2.796875 L 1.09375 -2.796875 L 1.09375 -0.828125 C 1.09375 -0.628906 1.132812 -0.484375 1.21875 -0.390625 C 1.300781 -0.296875 1.410156 -0.25 1.546875 -0.25 C 1.617188 -0.25 1.679688 -0.253906 1.734375 -0.265625 C 1.796875 -0.273438 1.859375 -0.285156 1.921875 -0.296875 L 1.921875 -0.03125 C 1.867188 -0.0078125 1.789062 0.0078125 1.6875 0.03125 C 1.582031 0.0507812 1.488281 0.0625 1.40625 0.0625 Z "/>
</g>
<g id="glyph-0-4">
<path d="M 0.109375 0 L 0.109375 -0.25 L 0.15625 -0.25 C 0.28125 -0.25 0.390625 -0.269531 0.484375 -0.3125 C 0.578125 -0.363281 0.625 -0.484375 0.625 -0.671875 L 0.625 -3.78125 C 0.625 -3.957031 0.578125 -4.066406 0.484375 -4.109375 C 0.390625 -4.160156 0.28125 -4.1875 0.15625 -4.1875 L 0.109375 -4.1875 L 0.109375 -4.421875 L 1.171875 -4.421875 L 1.171875 -3.140625 C 1.171875 -3.078125 1.171875 -3.003906 1.171875 -2.921875 C 1.171875 -2.847656 1.164062 -2.785156 1.15625 -2.734375 C 1.15625 -2.679688 1.15625 -2.65625 1.15625 -2.65625 L 1.1875 -2.65625 C 1.363281 -3.007812 1.648438 -3.1875 2.046875 -3.1875 C 2.378906 -3.1875 2.632812 -3.09375 2.8125 -2.90625 C 2.988281 -2.726562 3.078125 -2.441406 3.078125 -2.046875 L 3.078125 -0.671875 C 3.078125 -0.484375 3.117188 -0.363281 3.203125 -0.3125 C 3.285156 -0.269531 3.390625 -0.25 3.515625 -0.25 L 3.53125 -0.25 L 3.53125 0 L 2.53125 0 L 2.53125 -2.015625 C 2.53125 -2.265625 2.476562 -2.457031 2.375 -2.59375 C 2.28125 -2.738281 2.113281 -2.8125 1.875 -2.8125 C 1.632812 -2.8125 1.457031 -2.722656 1.34375 -2.546875 C 1.226562 -2.378906 1.171875 -2.148438 1.171875 -1.859375 L 1.171875 -0.640625 C 1.171875 -0.460938 1.21875 -0.351562 1.3125 -0.3125 C 1.414062 -0.269531 1.53125 -0.25 1.65625 -0.25 L 1.671875 -0.25 L 1.671875 0 Z "/>
</g>
<g id="glyph-0-5">
</g>
<g id="glyph-0-6">
<path d="M 2.109375 0.0625 C 1.722656 0.0625 1.394531 -0.0234375 1.125 -0.203125 C 0.863281 -0.390625 0.664062 -0.640625 0.53125 -0.953125 C 0.394531 -1.273438 0.328125 -1.65625 0.328125 -2.09375 C 0.328125 -2.507812 0.394531 -2.875 0.53125 -3.1875 C 0.675781 -3.507812 0.890625 -3.757812 1.171875 -3.9375 C 1.453125 -4.125 1.796875 -4.21875 2.203125 -4.21875 C 2.597656 -4.21875 2.890625 -4.15625 3.078125 -4.03125 C 3.273438 -3.90625 3.375 -3.75 3.375 -3.5625 C 3.375 -3.4375 3.328125 -3.335938 3.234375 -3.265625 C 3.140625 -3.191406 3.019531 -3.15625 2.875 -3.15625 C 2.875 -3.28125 2.851562 -3.398438 2.8125 -3.515625 C 2.769531 -3.628906 2.695312 -3.722656 2.59375 -3.796875 C 2.5 -3.867188 2.363281 -3.90625 2.1875 -3.90625 C 1.75 -3.90625 1.4375 -3.742188 1.25 -3.421875 C 1.070312 -3.109375 0.984375 -2.664062 0.984375 -2.09375 C 0.984375 -1.738281 1.023438 -1.425781 1.109375 -1.15625 C 1.191406 -0.894531 1.320312 -0.691406 1.5 -0.546875 C 1.675781 -0.398438 1.90625 -0.328125 2.1875 -0.328125 C 2.46875 -0.328125 2.6875 -0.375 2.84375 -0.46875 C 3.007812 -0.570312 3.144531 -0.691406 3.25 -0.828125 C 3.28125 -0.804688 3.304688 -0.773438 3.328125 -0.734375 C 3.347656 -0.703125 3.359375 -0.65625 3.359375 -0.59375 C 3.359375 -0.5 3.3125 -0.398438 3.21875 -0.296875 C 3.132812 -0.191406 3 -0.101562 2.8125 -0.03125 C 2.625 0.03125 2.390625 0.0625 2.109375 0.0625 Z "/>
</g>
<g id="glyph-0-7">
<path d="M 1.1875 0.0625 C 0.925781 0.0625 0.710938 -0.0078125 0.546875 -0.15625 C 0.378906 -0.3125 0.296875 -0.550781 0.296875 -0.875 C 0.296875 -1.1875 0.40625 -1.414062 0.625 -1.5625 C 0.84375 -1.707031 1.175781 -1.789062 1.625 -1.8125 L 2.109375 -1.828125 L 2.109375 -2.171875 C 2.109375 -2.316406 2.09375 -2.441406 2.0625 -2.546875 C 2.039062 -2.648438 1.988281 -2.734375 1.90625 -2.796875 C 1.832031 -2.859375 1.71875 -2.890625 1.5625 -2.890625 C 1.414062 -2.890625 1.300781 -2.863281 1.21875 -2.8125 C 1.144531 -2.757812 1.09375 -2.679688 1.0625 -2.578125 C 1.039062 -2.484375 1.03125 -2.375 1.03125 -2.25 C 0.863281 -2.25 0.738281 -2.273438 0.65625 -2.328125 C 0.570312 -2.390625 0.53125 -2.488281 0.53125 -2.625 C 0.53125 -2.757812 0.578125 -2.867188 0.671875 -2.953125 C 0.773438 -3.035156 0.90625 -3.09375 1.0625 -3.125 C 1.21875 -3.164062 1.390625 -3.1875 1.578125 -3.1875 C 1.941406 -3.1875 2.210938 -3.109375 2.390625 -2.953125 C 2.566406 -2.804688 2.65625 -2.546875 2.65625 -2.171875 L 2.65625 -0.671875 C 2.65625 -0.503906 2.679688 -0.390625 2.734375 -0.328125 C 2.785156 -0.273438 2.878906 -0.25 3.015625 -0.25 L 3.03125 -0.25 L 3.03125 0 L 2.25 0 L 2.15625 -0.5 L 2.109375 -0.5 C 2.023438 -0.394531 1.941406 -0.300781 1.859375 -0.21875 C 1.785156 -0.132812 1.695312 -0.0664062 1.59375 -0.015625 C 1.488281 0.0351562 1.351562 0.0625 1.1875 0.0625 Z M 1.328125 -0.296875 C 1.566406 -0.296875 1.753906 -0.367188 1.890625 -0.515625 C 2.035156 -0.660156 2.109375 -0.859375 2.109375 -1.109375 L 2.109375 -1.578125 L 1.734375 -1.5625 C 1.398438 -1.550781 1.171875 -1.484375 1.046875 -1.359375 C 0.921875 -1.242188 0.859375 -1.070312 0.859375 -0.84375 C 0.859375 -0.476562 1.015625 -0.296875 1.328125 -0.296875 Z "/>
</g>
<g id="glyph-0-8">
<path d="M 0.1875 0 L 0.1875 -0.25 L 0.203125 -0.25 C 0.335938 -0.25 0.453125 -0.269531 0.546875 -0.3125 C 0.640625 -0.363281 0.6875 -0.484375 0.6875 -0.671875 L 0.6875 -2.484375 C 0.6875 -2.648438 0.640625 -2.753906 0.546875 -2.796875 C 0.453125 -2.847656 0.335938 -2.875 0.203125 -2.875 L 0.1875 -2.875 L 0.1875 -3.125 L 1.09375 -3.125 L 1.203125 -2.546875 L 1.234375 -2.546875 C 1.285156 -2.660156 1.335938 -2.765625 1.390625 -2.859375 C 1.453125 -2.960938 1.53125 -3.039062 1.625 -3.09375 C 1.71875 -3.15625 1.851562 -3.1875 2.03125 -3.1875 C 2.238281 -3.1875 2.394531 -3.144531 2.5 -3.0625 C 2.601562 -2.988281 2.65625 -2.882812 2.65625 -2.75 C 2.65625 -2.632812 2.613281 -2.535156 2.53125 -2.453125 C 2.445312 -2.378906 2.304688 -2.34375 2.109375 -2.34375 C 2.109375 -2.5 2.082031 -2.613281 2.03125 -2.6875 C 1.988281 -2.757812 1.914062 -2.796875 1.8125 -2.796875 C 1.695312 -2.796875 1.601562 -2.753906 1.53125 -2.671875 C 1.457031 -2.585938 1.398438 -2.476562 1.359375 -2.34375 C 1.316406 -2.207031 1.285156 -2.066406 1.265625 -1.921875 C 1.242188 -1.785156 1.234375 -1.660156 1.234375 -1.546875 L 1.234375 -0.640625 C 1.234375 -0.460938 1.28125 -0.351562 1.375 -0.3125 C 1.46875 -0.269531 1.582031 -0.25 1.71875 -0.25 L 1.875 -0.25 L 1.875 0 Z "/>
</g>
<g id="glyph-0-9">
<path d="M 0.84375 -2.359375 C 0.738281 -2.359375 0.648438 -2.382812 0.578125 -2.4375 C 0.503906 -2.5 0.46875 -2.601562 0.46875 -2.75 C 0.46875 -2.90625 0.503906 -3.007812 0.578125 -3.0625 C 0.648438 -3.125 0.738281 -3.15625 0.84375 -3.15625 C 0.9375 -3.15625 1.019531 -3.125 1.09375 -3.0625 C 1.164062 -3.007812 1.203125 -2.90625 1.203125 -2.75 C 1.203125 -2.601562 1.164062 -2.5 1.09375 -2.4375 C 1.019531 -2.382812 0.9375 -2.359375 0.84375 -2.359375 Z M 0.84375 0.046875 C 0.738281 0.046875 0.648438 0.015625 0.578125 -0.046875 C 0.503906 -0.109375 0.46875 -0.210938 0.46875 -0.359375 C 0.46875 -0.503906 0.503906 -0.601562 0.578125 -0.65625 C 0.648438 -0.71875 0.738281 -0.75 0.84375 -0.75 C 0.9375 -0.75 1.019531 -0.71875 1.09375 -0.65625 C 1.164062 -0.601562 1.203125 -0.503906 1.203125 -0.359375 C 1.203125 -0.210938 1.164062 -0.109375 1.09375 -0.046875 C 1.019531 0.015625 0.9375 0.046875 0.84375 0.046875 Z "/>
</g>
</g>
</defs>
<g fill="rgb(96.862745%, 85.098039%, 43.529412%)" fill-opacity="1">
<use xlink:href="#glyph-0-0" x="30" y="26.235352"/>
<use xlink:href="#glyph-0-1" x="33" y="26.235352"/>
<use xlink:href="#glyph-0-2" x="39" y="26.235352"/>
<use xlink:href="#glyph-0-3" x="41" y="26.235352"/>
<use xlink:href="#glyph-0-4" x="43" y="26.235352"/>
<use xlink:href="#glyph-0-5" x="47" y="26.235352"/>
<use xlink:href="#glyph-0-6" x="49" y="26.235352"/>
<use xlink:href="#glyph-0-4" x="53" y="26.235352"/>
<use xlink:href="#glyph-0-7" x="57" y="26.235352"/>
<use xlink:href="#glyph-0-8" x="60" y="26.235352"/>
<use xlink:href="#glyph-0-3" x="63" y="26.235352"/>
<use xlink:href="#glyph-0-9" x="65" y="26.235352"/>
</g>
</svg>
