<?xml version="1.0" encoding="UTF-8"?>
<svg xmlns="http://www.w3.org/2000/svg" xmlns:xlink="http://www.w3.org/1999/xlink" width="854" height="480" viewBox="0 0 854 480">
<defs>
<g>
<g id="glyph-0-0">
<path d="M 0.359375 0 L 0.359375 -0.390625 L 0.484375 -0.390625 C 0.691406 -0.390625 0.867188 -0.425781 1.015625 -0.5 C 1.171875 -0.570312 1.25 -0.75 1.25 -1.03125 L 1.25 -5.703125 C 1.25 -5.972656 1.171875 -6.144531 1.015625 -6.21875 C 0.867188 -6.300781 0.691406 -6.34375 0.484375 -6.34375 L 0.359375 -6.34375 L 0.359375 -6.734375 L 2.890625 -6.734375 C 4.515625 -6.734375 5.328125 -6.128906 5.328125 -4.921875 C 5.328125 -4.585938 5.253906 -4.304688 5.109375 -4.078125 C 4.972656 -3.847656 4.800781 -3.660156 4.59375 -3.515625 C 4.382812 -3.378906 4.164062 -3.273438 3.9375 -3.203125 L 5.234375 -1.15625 C 5.390625 -0.90625 5.539062 -0.710938 5.6875 -0.578125 C 5.84375 -0.453125 6.019531 -0.390625 6.21875 -0.390625 L 6.25 -0.390625 L 6.25 0 L 6.109375 0 C 5.722656 0 5.421875 -0.0195312 5.203125 -0.0625 C 4.984375 -0.101562 4.804688 -0.179688 4.671875 -0.296875 C 4.546875 -0.421875 4.410156 -0.601562 4.265625 -0.84375 L 2.984375 -2.96875 L 2.203125 -2.96875 L 2.203125 -1.03125 C 2.203125 -0.75 2.28125 -0.570312 2.4375 -0.5 C 2.59375 -0.425781 2.773438 -0.390625 2.984375 -0.390625 L 3.109375 -0.390625 L 3.109375 0 Z M 2.875 -3.421875 C 3.425781 -3.421875 3.800781 -3.539062 4 -3.78125 C 4.207031 -4.03125 4.3125 -4.398438 4.3125 -4.890625 C 4.3125 -5.390625 4.203125 -5.742188 3.984375 -5.953125 C 3.765625 -6.171875 3.382812 -6.28125 2.84375 -6.28125 L 2.203125 -6.28125 L 2.203125 -3.421875 Z "/>
</g>
<g id="glyph-0-1">
<path d="M 2.703125 0.09375 C 2.023438 0.09375 1.488281 -0.128906 1.09375 -0.578125 C 0.707031 -1.035156 0.515625 -1.671875 0.515625 -2.484375 C 0.515625 -3.367188 0.695312 -4.035156 1.0625 -4.484375 C 1.425781 -4.929688 1.941406 -5.15625 2.609375 -5.15625 C 3.222656 -5.15625 3.703125 -4.960938 4.046875 -4.578125 C 4.398438 -4.203125 4.578125 -3.640625 4.578125 -2.890625 L 4.578125 -2.46875 L 1.4375 -2.46875 C 1.445312 -1.78125 1.566406 -1.28125 1.796875 -0.96875 C 2.035156 -0.65625 2.382812 -0.5 2.84375 -0.5 C 3.164062 -0.5 3.441406 -0.566406 3.671875 -0.703125 C 3.898438 -0.835938 4.070312 -0.988281 4.1875 -1.15625 C 4.226562 -1.132812 4.269531 -1.097656 4.3125 -1.046875 C 4.351562 -0.992188 4.375 -0.925781 4.375 -0.84375 C 4.375 -0.71875 4.3125 -0.582031 4.1875 -0.4375 C 4.070312 -0.289062 3.890625 -0.164062 3.640625 -0.0625 C 3.398438 0.0390625 3.085938 0.09375 2.703125 0.09375 Z M 3.625 -2.96875 C 3.625 -3.476562 3.546875 -3.882812 3.390625 -4.1875 C 3.234375 -4.488281 2.96875 -4.640625 2.59375 -4.640625 C 2.25 -4.640625 1.976562 -4.492188 1.78125 -4.203125 C 1.59375 -3.921875 1.484375 -3.507812 1.453125 -2.96875 Z "/>
</g>
<g id="glyph-0-2">
<path d="M 0.25 0 L 0.25 -0.390625 L 0.375 -0.390625 C 0.59375 -0.390625 0.773438 -0.425781 0.921875 -0.5 C 1.078125 -0.582031 1.15625 -0.773438 1.15625 -1.078125 L 1.15625 -4.609375 L 0.296875 -4.609375 L 0.296875 -5.0625 L 1.15625 -5.0625 L 1.15625 -5.34375 C 1.15625 -5.914062 1.335938 -6.378906 1.703125 -6.734375 C 2.066406 -7.085938 2.632812 -7.265625 3.40625 -7.265625 C 3.5625 -7.265625 3.726562 -7.25 3.90625 -7.21875 C 4.082031 -7.195312 4.207031 -7.179688 4.28125 -7.171875 L 5.234375 -7.171875 L 5.234375 -1.078125 C 5.234375 -0.773438 5.304688 -0.582031 5.453125 -0.5 C 5.609375 -0.425781 5.789062 -0.390625 6 -0.390625 L 6.125 -0.390625 L 6.125 0 L 3.546875 0 L 3.546875 -0.390625 L 3.5625 -0.390625 C 3.78125 -0.390625 3.960938 -0.425781 4.109375 -0.5 C 4.265625 -0.582031 4.34375 -0.773438 4.34375 -1.078125 L 4.34375 -5.875 C 4.34375 -6.132812 4.253906 -6.359375 4.078125 -6.546875 C 3.910156 -6.734375 3.632812 -6.828125 3.25 -6.828125 C 2.925781 -6.828125 2.675781 -6.757812 2.5 -6.625 C 2.320312 -6.488281 2.195312 -6.304688 2.125 -6.078125 C 2.0625 -5.847656 2.03125 -5.597656 2.03125 -5.328125 L 2.03125 -5.0625 L 3.484375 -5.0625 L 3.484375 -4.609375 L 2.03125 -4.609375 L 2.03125 -1.078125 C 2.03125 -0.773438 2.101562 -0.582031 2.25 -0.5 C 2.40625 -0.425781 2.59375 -0.390625 2.8125 -0.390625 L 2.984375 -0.390625 L 2.984375 0 Z "/>
</g>
<g id="glyph-0-3">
<path d="M 2.671875 0.09375 C 2.253906 0.09375 1.882812 0.00390625 1.5625 -0.171875 C 1.238281 -0.347656 0.984375 -0.625 0.796875 -1 C 0.609375 -1.382812 0.515625 -1.882812 0.515625 -2.5 C 0.515625 -3.175781 0.609375 -3.707031 0.796875 -4.09375 C 0.984375 -4.476562 1.234375 -4.75 1.546875 -4.90625 C 1.867188 -5.070312 2.226562 -5.15625 2.625 -5.15625 C 2.882812 -5.15625 3.140625 -5.117188 3.390625 -5.046875 C 3.648438 -4.972656 3.859375 -4.863281 4.015625 -4.71875 C 4.179688 -4.582031 4.265625 -4.40625 4.265625 -4.1875 C 4.265625 -3.976562 4.191406 -3.828125 4.046875 -3.734375 C 3.910156 -3.640625 3.703125 -3.59375 3.421875 -3.59375 C 3.421875 -3.894531 3.363281 -4.148438 3.25 -4.359375 C 3.144531 -4.578125 2.9375 -4.6875 2.625 -4.6875 C 2.382812 -4.6875 2.175781 -4.617188 2 -4.484375 C 1.820312 -4.359375 1.679688 -4.140625 1.578125 -3.828125 C 1.484375 -3.515625 1.4375 -3.078125 1.4375 -2.515625 C 1.4375 -1.847656 1.546875 -1.347656 1.765625 -1.015625 C 1.992188 -0.679688 2.359375 -0.515625 2.859375 -0.515625 C 3.148438 -0.515625 3.40625 -0.578125 3.625 -0.703125 C 3.84375 -0.828125 4.003906 -0.988281 4.109375 -1.1875 C 4.222656 -1.09375 4.28125 -0.96875 4.28125 -0.8125 C 4.28125 -0.664062 4.21875 -0.519531 4.09375 -0.375 C 3.976562 -0.238281 3.800781 -0.125 3.5625 -0.03125 C 3.320312 0.0507812 3.023438 0.09375 2.671875 0.09375 Z "/>
</g>
<g id="glyph-0-4">
<path d="M 2.265625 0.09375 C 1.785156 0.09375 1.4375 -0.015625 1.21875 -0.234375 C 1 -0.453125 0.890625 -0.832031 0.890625 -1.375 L 0.890625 -4.515625 L 0.171875 -4.515625 L 0.171875 -4.890625 C 0.285156 -4.890625 0.410156 -4.914062 0.546875 -4.96875 C 0.691406 -5.019531 0.816406 -5.097656 0.921875 -5.203125 C 1.023438 -5.316406 1.109375 -5.453125 1.171875 -5.609375 C 1.242188 -5.773438 1.300781 -5.976562 1.34375 -6.21875 L 1.78125 -6.21875 L 1.78125 -5.0625 L 3.015625 -5.0625 L 3.015625 -4.515625 L 1.78125 -4.515625 L 1.78125 -1.34375 C 1.78125 -1.019531 1.847656 -0.78125 1.984375 -0.625 C 2.117188 -0.476562 2.289062 -0.40625 2.5 -0.40625 C 2.613281 -0.40625 2.71875 -0.410156 2.8125 -0.421875 C 2.90625 -0.429688 3.003906 -0.445312 3.109375 -0.46875 L 3.109375 -0.0625 C 3.023438 -0.0195312 2.898438 0.015625 2.734375 0.046875 C 2.566406 0.078125 2.410156 0.09375 2.265625 0.09375 Z "/>
</g>
<g id="glyph-0-5">
<path d="M 1.515625 -6 C 1.367188 -6 1.242188 -6.039062 1.140625 -6.125 C 1.035156 -6.21875 0.984375 -6.375 0.984375 -6.59375 C 0.984375 -6.8125 1.035156 -6.960938 1.140625 -7.046875 C 1.242188 -7.128906 1.367188 -7.171875 1.515625 -7.171875 C 1.660156 -7.171875 1.785156 -7.128906 1.890625 -7.046875 C 2.003906 -6.960938 2.0625 -6.8125 2.0625 -6.59375 C 2.0625 -6.375 2.003906 -6.21875 1.890625 -6.125 C 1.785156 -6.039062 1.660156 -6 1.515625 -6 Z M 0.21875 0 L 0.21875 -0.390625 L 0.34375 -0.390625 C 0.550781 -0.390625 0.726562 -0.425781 0.875 -0.5 C 1.03125 -0.570312 1.109375 -0.75 1.109375 -1.03125 L 1.109375 -4.015625 C 1.109375 -4.296875 1.03125 -4.472656 0.875 -4.546875 C 0.726562 -4.617188 0.550781 -4.65625 0.34375 -4.65625 L 0.3125 -4.65625 L 0.3125 -5.0625 L 2 -5.0625 L 2 -1.078125 C 2 -0.773438 2.070312 -0.582031 2.21875 -0.5 C 2.375 -0.425781 2.5625 -0.390625 2.78125 -0.390625 L 2.890625 -0.390625 L 2.890625 0 Z "/>
</g>
<g id="glyph-0-6">
<path d="M 2.703125 0.09375 C 2.023438 0.09375 1.488281 -0.117188 1.09375 -0.546875 C 0.707031 -0.984375 0.515625 -1.644531 0.515625 -2.53125 C 0.515625 -3.414062 0.703125 -4.070312 1.078125 -4.5 C 1.453125 -4.9375 2.003906 -5.15625 2.734375 -5.15625 C 3.410156 -5.15625 3.941406 -4.9375 4.328125 -4.5 C 4.722656 -4.070312 4.921875 -3.414062 4.921875 -2.53125 C 4.921875 -1.644531 4.734375 -0.984375 4.359375 -0.546875 C 3.984375 -0.117188 3.429688 0.09375 2.703125 0.09375 Z M 2.734375 -0.390625 C 3.203125 -0.390625 3.53125 -0.570312 3.71875 -0.9375 C 3.914062 -1.300781 4.015625 -1.832031 4.015625 -2.53125 C 4.015625 -3.238281 3.914062 -3.769531 3.71875 -4.125 C 3.519531 -4.476562 3.1875 -4.65625 2.71875 -4.65625 C 2.25 -4.65625 1.914062 -4.476562 1.71875 -4.125 C 1.53125 -3.769531 1.4375 -3.238281 1.4375 -2.53125 C 1.4375 -1.832031 1.53125 -1.300781 1.71875 -0.9375 C 1.914062 -0.570312 2.253906 -0.390625 2.734375 -0.390625 Z "/>
</g>
<g id="glyph-0-7">
<path d="M 0.265625 0 L 0.265625 -0.390625 L 0.34375 -0.390625 C 0.550781 -0.390625 0.726562 -0.425781 0.875 -0.5 C 1.03125 -0.582031 1.109375 -0.773438 1.109375 -1.078125 L 1.109375 -4.015625 C 1.109375 -4.296875 1.035156 -4.472656 0.890625 -4.546875 C 0.742188 -4.617188 0.566406 -4.65625 0.359375 -4.65625 L 0.3125 -4.65625 L 0.3125 -5.0625 L 1.84375 -5.0625 L 1.96875 -4.296875 L 2.015625 -4.296875 C 2.203125 -4.648438 2.414062 -4.878906 2.65625 -4.984375 C 2.90625 -5.097656 3.179688 -5.15625 3.484375 -5.15625 C 3.984375 -5.15625 4.367188 -5.007812 4.640625 -4.71875 C 4.921875 -4.425781 5.0625 -3.953125 5.0625 -3.296875 L 5.0625 -1.078125 C 5.0625 -0.773438 5.125 -0.582031 5.25 -0.5 C 5.382812 -0.425781 5.5625 -0.390625 5.78125 -0.390625 L 5.828125 -0.390625 L 5.828125 0 L 4.1875 0 L 4.1875 -3.25 C 4.1875 -3.664062 4.109375 -3.984375 3.953125 -4.203125 C 3.796875 -4.429688 3.523438 -4.546875 3.140625 -4.546875 C 2.859375 -4.546875 2.632812 -4.472656 2.46875 -4.328125 C 2.300781 -4.191406 2.179688 -4.003906 2.109375 -3.765625 C 2.035156 -3.535156 2 -3.285156 2 -3.015625 L 2 -1.03125 C 2 -0.75 2.070312 -0.570312 2.21875 -0.5 C 2.363281 -0.425781 2.539062 -0.390625 2.75 -0.390625 L 2.796875 -0.390625 L 2.796875 0 Z "/>
</g>
<g id="glyph-0-8">
</g>
<g id="glyph-0-9">
<path d="M 3.40625 0.09375 C 2.78125 0.09375 2.253906 -0.0507812 1.828125 -0.34375 C 1.398438 -0.632812 1.078125 -1.035156 0.859375 -1.546875 C 0.640625 -2.066406 0.53125 -2.675781 0.53125 -3.375 C 0.53125 -4.050781 0.644531 -4.648438 0.875 -5.171875 C 1.113281 -5.691406 1.457031 -6.097656 1.90625 -6.390625 C 2.351562 -6.679688 2.90625 -6.828125 3.5625 -6.828125 C 4.207031 -6.828125 4.6875 -6.726562 5 -6.53125 C 5.3125 -6.332031 5.46875 -6.082031 5.46875 -5.78125 C 5.46875 -5.570312 5.390625 -5.40625 5.234375 -5.28125 C 5.078125 -5.164062 4.882812 -5.109375 4.65625 -5.109375 C 4.65625 -5.304688 4.617188 -5.5 4.546875 -5.6875 C 4.472656 -5.875 4.359375 -6.023438 4.203125 -6.140625 C 4.046875 -6.265625 3.828125 -6.328125 3.546875 -6.328125 C 2.835938 -6.328125 2.332031 -6.070312 2.03125 -5.5625 C 1.726562 -5.050781 1.578125 -4.320312 1.578125 -3.375 C 1.578125 -2.8125 1.644531 -2.316406 1.78125 -1.890625 C 1.914062 -1.460938 2.128906 -1.128906 2.421875 -0.890625 C 2.710938 -0.648438 3.085938 -0.53125 3.546875 -0.53125 C 4.003906 -0.53125 4.363281 -0.609375 4.625 -0.765625 C 4.882812 -0.929688 5.09375 -1.117188 5.25 -1.328125 C 5.300781 -1.296875 5.34375 -1.25 5.375 -1.1875 C 5.414062 -1.132812 5.4375 -1.0625 5.4375 -0.96875 C 5.4375 -0.8125 5.363281 -0.648438 5.21875 -0.484375 C 5.070312 -0.316406 4.847656 -0.175781 4.546875 -0.0625 C 4.253906 0.0390625 3.875 0.09375 3.40625 0.09375 Z "/>
</g>
<g id="glyph-0-10">
<path d="M 0.25 0 L 0.25 -0.390625 L 0.375 -0.390625 C 0.59375 -0.390625 0.773438 -0.425781 0.921875 -0.5 C 1.078125 -0.582031 1.15625 -0.773438 1.15625 -1.078125 L 1.15625 -4.609375 L 0.296875 -4.609375 L 0.296875 -5.0625 L 1.15625 -5.0625 L 1.15625 -5.171875 C 1.15625 -5.828125 1.304688 -6.320312 1.609375 -6.65625 C 1.910156 -7 2.335938 -7.171875 2.890625 -7.171875 C 3.347656 -7.171875 3.671875 -7.109375 3.859375 -6.984375 C 4.046875 -6.859375 4.140625 -6.703125 4.140625 -6.515625 C 4.140625 -6.335938 4.066406 -6.203125 3.921875 -6.109375 C 3.773438 -6.023438 3.59375 -5.984375 3.375 -5.984375 C 3.375 -6.171875 3.328125 -6.34375 3.234375 -6.5 C 3.148438 -6.65625 2.988281 -6.734375 2.75 -6.734375 C 2.476562 -6.734375 2.289062 -6.601562 2.1875 -6.34375 C 2.082031 -6.082031 2.03125 -5.734375 2.03125 -5.296875 L 2.03125 -5.0625 L 4.34375 -5.0625 L 4.34375 -5.140625 C 4.34375 -5.816406 4.523438 -6.347656 4.890625 -6.734375 C 5.265625 -7.117188 5.835938 -7.3125 6.609375 -7.3125 C 7.191406 -7.3125 7.628906 -7.238281 7.921875 -7.09375 C 8.222656 -6.957031 8.375 -6.769531 8.375 -6.53125 C 8.375 -6.34375 8.296875 -6.191406 8.140625 -6.078125 C 7.984375 -5.960938 7.773438 -5.90625 7.515625 -5.90625 C 7.515625 -6.03125 7.484375 -6.164062 7.421875 -6.3125 C 7.359375 -6.46875 7.25 -6.597656 7.09375 -6.703125 C 6.9375 -6.816406 6.722656 -6.875 6.453125 -6.875 C 6.128906 -6.875 5.878906 -6.796875 5.703125 -6.640625 C 5.523438 -6.492188 5.398438 -6.289062 5.328125 -6.03125 C 5.265625 -5.769531 5.234375 -5.472656 5.234375 -5.140625 L 5.234375 -5.0625 L 8.4375 -5.0625 L 8.4375 -1.078125 C 8.4375 -0.773438 8.507812 -0.582031 8.65625 -0.5 C 8.8125 -0.425781 9 -0.390625 9.21875 -0.390625 L 9.328125 -0.390625 L 9.328125 0 L 6.75 0 L 6.75 -0.390625 L 6.78125 -0.390625 C 6.988281 -0.390625 7.164062 -0.425781 7.3125 -0.5 C 7.46875 -0.570312 7.546875 -0.75 7.546875 -1.03125 L 7.546875 -4.609375 L 5.234375 -4.609375 L 5.234375 -1.078125 C 5.234375 -0.773438 5.304688 -0.582031 5.453125 -0.5 C 5.609375 -0.425781 5.796875 -0.390625 6.015625 -0.390625 L 6.1875 -0.390625 L 6.1875 0 L 3.453125 0 L 3.453125 -0.390625 L 3.578125 -0.390625 C 3.785156 -0.390625 3.960938 -0.425781 4.109375 -0.5 C 4.265625 -0.582031 4.34375 -0.773438 4.34375 -1.078125 L 4.34375 -4.609375 L 2.03125 -4.609375 L 2.03125 -1.078125 C 2.03125 -0.773438 2.101562 -0.582031 2.25 -0.5 C 2.40625 -0.425781 2.59375 -0.390625 2.8125 -0.390625 L 2.984375 -0.390625 L 2.984375 0 Z "/>
</g>
<g id="glyph-0-11">
<path d="M 0.359375 0 L 0.359375 -0.390625 L 0.484375 -0.390625 C 0.691406 -0.390625 0.867188 -0.425781 1.015625 -0.5 C 1.171875 -0.582031 1.25 -0.773438 1.25 -1.078125 L 1.25 -5.65625 C 1.25 -5.957031 1.171875 -6.144531 1.015625 -6.21875 C 0.867188 -6.300781 0.691406 -6.34375 0.484375 -6.34375 L 0.359375 -6.34375 L 0.359375 -6.734375 L 5.015625 -6.734375 L 5.0625 -5.09375 L 4.578125 -5.09375 L 4.546875 -5.421875 C 4.515625 -5.679688 4.441406 -5.882812 4.328125 -6.03125 C 4.210938 -6.1875 3.96875 -6.265625 3.59375 -6.265625 L 2.203125 -6.265625 L 2.203125 -1.03125 C 2.203125 -0.757812 2.28125 -0.582031 2.4375 -0.5 C 2.59375 -0.425781 2.773438 -0.390625 2.984375 -0.390625 L 3.296875 -0.390625 L 3.296875 0 Z "/>
</g>
</g>
</defs>
<g fill="rgb(100%, 100%, 100%)" fill-opacity="1">
<use xlink:href="#glyph-0-0" x="30" y="30.095703"/>
<use xlink:href="#glyph-0-1" x="36" y="30.095703"/>
<use xlink:href="#glyph-0-2" x="41" y="30.095703"/>
<use xlink:href="#glyph-0-1" x="47" y="30.095703"/>
<use xlink:href="#glyph-0-3" x="52" y="30.095703"/>
<use xlink:href="#glyph-0-4" x="57" y="30.095703"/>
<use xlink:href="#glyph-0-5" x="60" y="30.095703"/>
<use xlink:href="#glyph-0-6" x="63" y="30.095703"/>
<use xlink:href="#glyph-0-7" x="68" y="30.095703"/>
<use xlink:href="#glyph-0-8" x="74" y="30.095703"/>
<use xlink:href="#glyph-0-9" x="76" y="30.095703"/>
<use xlink:href="#glyph-0-6" x="82" y="30.095703"/>
<use xlink:href="#glyph-0-1" x="87" y="30.095703"/>
<use xlink:href="#glyph-0-10" x="92" y="30.095703"/>
<use xlink:href="#glyph-0-3" x="101" y="30.095703"/>
<use xlink:href="#glyph-0-5" x="106" y="30.095703"/>
<use xlink:href="#glyph-0-1" x="109" y="30.095703"/>
<use xlink:href="#glyph-0-7" x="114" y="30.095703"/>
<use xlink:href="#glyph-0-4" x="120" y="30.095703"/>
<use xlink:href="#glyph-0-8" x="123" y="30.095703"/>
<use xlink:href="#glyph-0-8" x="125" y="30.095703"/>
</g>
<g fill="rgb(100%, 100%, 100%)" fill-opacity="1">
<use xlink:href="#glyph-0-11" x="127" y="30.095703"/>
</g>
</svg>
