<?xml version="1.0" encoding="UTF-8"?>
<svg xmlns="http://www.w3.org/2000/svg" xmlns:xlink="http://www.w3.org/1999/xlink" width="854" height="480" viewBox="0 0 854 480">
<defs>
<g>
<g id="glyph-0-0">
<path d="M 2.75 0.109375 C 2.019531 0.109375 1.46875 -0.03125 1.09375 -0.3125 C 0.71875 -0.601562 0.53125 -0.984375 0.53125 -1.453125 C 0.53125 -1.671875 0.597656 -1.847656 0.734375 -1.984375 C 0.878906 -2.128906 1.078125 -2.203125 1.328125 -2.203125 C 1.347656 -1.898438 1.410156 -1.613281 1.515625 -1.34375 C 1.617188 -1.070312 1.773438 -0.851562 1.984375 -0.6875 C 2.203125 -0.519531 2.484375 -0.4375 2.828125 -0.4375 C 3.328125 -0.4375 3.71875 -0.554688 4 -0.796875 C 4.28125 -1.035156 4.421875 -1.378906 4.421875 -1.828125 C 4.421875 -2.109375 4.363281 -2.34375 4.25 -2.53125 C 4.144531 -2.71875 3.96875 -2.890625 3.71875 -3.046875 C 3.476562 -3.210938 3.140625 -3.382812 2.703125 -3.5625 C 2.015625 -3.84375 1.5 -4.171875 1.15625 -4.546875 C 0.820312 -4.929688 0.65625 -5.425781 0.65625 -6.03125 C 0.65625 -6.457031 0.757812 -6.816406 0.96875 -7.109375 C 1.175781 -7.410156 1.460938 -7.640625 1.828125 -7.796875 C 2.203125 -7.960938 2.625 -8.046875 3.09375 -8.046875 C 3.75 -8.046875 4.257812 -7.914062 4.625 -7.65625 C 4.988281 -7.40625 5.171875 -7.117188 5.171875 -6.796875 C 5.171875 -6.554688 5.085938 -6.375 4.921875 -6.25 C 4.765625 -6.132812 4.550781 -6.078125 4.28125 -6.078125 C 4.28125 -6.304688 4.242188 -6.523438 4.171875 -6.734375 C 4.097656 -6.953125 3.96875 -7.128906 3.78125 -7.265625 C 3.601562 -7.410156 3.359375 -7.484375 3.046875 -7.484375 C 2.617188 -7.484375 2.285156 -7.367188 2.046875 -7.140625 C 1.804688 -6.910156 1.6875 -6.601562 1.6875 -6.21875 C 1.6875 -5.925781 1.738281 -5.675781 1.84375 -5.46875 C 1.957031 -5.269531 2.140625 -5.085938 2.390625 -4.921875 C 2.640625 -4.765625 2.976562 -4.597656 3.40625 -4.421875 C 4.0625 -4.148438 4.570312 -3.84375 4.9375 -3.5 C 5.300781 -3.15625 5.484375 -2.695312 5.484375 -2.125 C 5.484375 -1.414062 5.234375 -0.863281 4.734375 -0.46875 C 4.242188 -0.0820312 3.582031 0.109375 2.75 0.109375 Z "/>
</g>
<g id="glyph-0-1">
<path d="M 2.671875 0.109375 C 2.109375 0.109375 1.695312 -0.015625 1.4375 -0.265625 C 1.1875 -0.523438 1.0625 -0.972656 1.0625 -1.609375 L 1.0625 -5.328125 L 0.21875 -5.328125 L 0.21875 -5.765625 C 0.34375 -5.765625 0.488281 -5.789062 0.65625 -5.84375 C 0.820312 -5.90625 0.960938 -6 1.078125 -6.125 C 1.203125 -6.257812 1.304688 -6.421875 1.390625 -6.609375 C 1.472656 -6.804688 1.539062 -7.046875 1.59375 -7.328125 L 2.09375 -7.328125 L 2.09375 -5.953125 L 3.5625 -5.953125 L 3.5625 -5.328125 L 2.09375 -5.328125 L 2.09375 -1.578125 C 2.09375 -1.203125 2.171875 -0.925781 2.328125 -0.75 C 2.484375 -0.570312 2.6875 -0.484375 2.9375 -0.484375 C 3.070312 -0.484375 3.195312 -0.488281 3.3125 -0.5 C 3.425781 -0.507812 3.539062 -0.53125 3.65625 -0.5625 L 3.65625 -0.0625 C 3.5625 -0.0195312 3.414062 0.015625 3.21875 0.046875 C 3.03125 0.0859375 2.847656 0.109375 2.671875 0.109375 Z "/>
</g>
<g id="glyph-0-2">
<path d="M 2.28125 0.109375 C 1.78125 0.109375 1.367188 -0.03125 1.046875 -0.3125 C 0.722656 -0.601562 0.5625 -1.054688 0.5625 -1.671875 C 0.5625 -2.265625 0.769531 -2.703125 1.1875 -2.984375 C 1.601562 -3.265625 2.238281 -3.414062 3.09375 -3.4375 L 4.015625 -3.484375 L 4.015625 -4.140625 C 4.015625 -4.410156 3.988281 -4.644531 3.9375 -4.84375 C 3.894531 -5.050781 3.800781 -5.210938 3.65625 -5.328125 C 3.507812 -5.453125 3.285156 -5.515625 2.984375 -5.515625 C 2.703125 -5.515625 2.484375 -5.460938 2.328125 -5.359375 C 2.179688 -5.253906 2.082031 -5.109375 2.03125 -4.921875 C 1.988281 -4.742188 1.96875 -4.535156 1.96875 -4.296875 C 1.65625 -4.296875 1.414062 -4.347656 1.25 -4.453125 C 1.09375 -4.566406 1.015625 -4.75 1.015625 -5 C 1.015625 -5.257812 1.101562 -5.46875 1.28125 -5.625 C 1.46875 -5.78125 1.710938 -5.890625 2.015625 -5.953125 C 2.328125 -6.023438 2.660156 -6.0625 3.015625 -6.0625 C 3.703125 -6.0625 4.210938 -5.914062 4.546875 -5.625 C 4.890625 -5.34375 5.0625 -4.847656 5.0625 -4.140625 L 5.0625 -1.265625 C 5.0625 -0.953125 5.109375 -0.738281 5.203125 -0.625 C 5.304688 -0.519531 5.488281 -0.46875 5.75 -0.46875 L 5.78125 -0.46875 L 5.78125 0 L 4.28125 0 L 4.09375 -0.953125 L 4.015625 -0.953125 C 3.859375 -0.742188 3.703125 -0.5625 3.546875 -0.40625 C 3.398438 -0.25 3.226562 -0.125 3.03125 -0.03125 C 2.84375 0.0625 2.59375 0.109375 2.28125 0.109375 Z M 2.53125 -0.578125 C 2.976562 -0.578125 3.335938 -0.710938 3.609375 -0.984375 C 3.878906 -1.265625 4.015625 -1.644531 4.015625 -2.125 L 4.015625 -3.015625 L 3.296875 -2.984375 C 2.671875 -2.953125 2.238281 -2.820312 2 -2.59375 C 1.757812 -2.375 1.640625 -2.046875 1.640625 -1.609375 C 1.640625 -0.921875 1.9375 -0.578125 2.53125 -0.578125 Z "/>
</g>
<g id="glyph-0-3">
<path d="M 3.9375 0.109375 C 3.507812 0.109375 3.160156 0.0195312 2.890625 -0.15625 C 2.617188 -0.34375 2.40625 -0.578125 2.25 -0.859375 L 2.171875 -0.859375 L 1.984375 0 L 0.203125 0 L 0.203125 -0.46875 L 0.28125 -0.46875 C 0.539062 -0.46875 0.757812 -0.515625 0.9375 -0.609375 C 1.113281 -0.703125 1.203125 -0.921875 1.203125 -1.265625 L 1.203125 -7.21875 C 1.203125 -7.539062 1.109375 -7.742188 0.921875 -7.828125 C 0.742188 -7.921875 0.53125 -7.96875 0.28125 -7.96875 L 0.203125 -7.96875 L 0.203125 -8.4375 L 2.25 -8.4375 L 2.25 -6.40625 C 2.25 -6.269531 2.242188 -6.101562 2.234375 -5.90625 C 2.234375 -5.71875 2.226562 -5.53125 2.21875 -5.34375 C 2.207031 -5.164062 2.203125 -5.035156 2.203125 -4.953125 L 2.25 -4.953125 C 2.414062 -5.296875 2.628906 -5.566406 2.890625 -5.765625 C 3.160156 -5.960938 3.507812 -6.0625 3.9375 -6.0625 C 4.675781 -6.0625 5.238281 -5.816406 5.625 -5.328125 C 6.007812 -4.835938 6.203125 -4.054688 6.203125 -2.984375 C 6.203125 -1.910156 6.007812 -1.125 5.625 -0.625 C 5.238281 -0.132812 4.675781 0.109375 3.9375 0.109375 Z M 3.765625 -0.59375 C 4.253906 -0.59375 4.601562 -0.796875 4.8125 -1.203125 C 5.019531 -1.617188 5.125 -2.21875 5.125 -3 C 5.125 -3.789062 5.019531 -4.378906 4.8125 -4.765625 C 4.601562 -5.160156 4.25 -5.359375 3.75 -5.359375 C 3.175781 -5.359375 2.78125 -5.160156 2.5625 -4.765625 C 2.351562 -4.378906 2.25 -3.785156 2.25 -2.984375 C 2.25 -2.210938 2.351562 -1.617188 2.5625 -1.203125 C 2.78125 -0.796875 3.179688 -0.59375 3.765625 -0.59375 Z "/>
</g>
<g id="glyph-0-4">
<path d="M 1.78125 -7.0625 C 1.601562 -7.0625 1.453125 -7.113281 1.328125 -7.21875 C 1.210938 -7.320312 1.15625 -7.5 1.15625 -7.75 C 1.15625 -8.007812 1.210938 -8.1875 1.328125 -8.28125 C 1.453125 -8.382812 1.601562 -8.4375 1.78125 -8.4375 C 1.957031 -8.4375 2.109375 -8.382812 2.234375 -8.28125 C 2.359375 -8.1875 2.421875 -8.007812 2.421875 -7.75 C 2.421875 -7.5 2.359375 -7.320312 2.234375 -7.21875 C 2.109375 -7.113281 1.957031 -7.0625 1.78125 -7.0625 Z M 0.25 0 L 0.25 -0.46875 L 0.40625 -0.46875 C 0.644531 -0.46875 0.851562 -0.507812 1.03125 -0.59375 C 1.21875 -0.675781 1.3125 -0.878906 1.3125 -1.203125 L 1.3125 -4.734375 C 1.3125 -5.054688 1.21875 -5.257812 1.03125 -5.34375 C 0.851562 -5.4375 0.644531 -5.484375 0.40625 -5.484375 L 0.359375 -5.484375 L 0.359375 -5.953125 L 2.359375 -5.953125 L 2.359375 -1.265625 C 2.359375 -0.921875 2.445312 -0.703125 2.625 -0.609375 C 2.800781 -0.515625 3.015625 -0.46875 3.265625 -0.46875 L 3.40625 -0.46875 L 3.40625 0 Z "/>
</g>
<g id="glyph-0-5">
<path d="M 0.140625 0 L 0.140625 -0.46875 L 0.28125 -0.46875 C 0.539062 -0.46875 0.757812 -0.515625 0.9375 -0.609375 C 1.113281 -0.703125 1.203125 -0.921875 1.203125 -1.265625 L 1.203125 -7.21875 C 1.203125 -7.539062 1.109375 -7.742188 0.921875 -7.828125 C 0.742188 -7.921875 0.53125 -7.96875 0.28125 -7.96875 L 0.140625 -7.96875 L 0.140625 -8.4375 L 2.25 -8.4375 L 2.25 -1.265625 C 2.25 -0.921875 2.335938 -0.703125 2.515625 -0.609375 C 2.691406 -0.515625 2.90625 -0.46875 3.15625 -0.46875 L 3.296875 -0.46875 L 3.296875 0 Z "/>
</g>
<g id="glyph-0-6">
<path d="M 0.421875 2.140625 C 0.921875 2.140625 1.332031 2.039062 1.65625 1.84375 C 1.976562 1.65625 2.238281 1.394531 2.4375 1.0625 C 2.644531 0.738281 2.804688 0.367188 2.921875 -0.046875 L 0.859375 -4.90625 C 0.765625 -5.132812 0.664062 -5.285156 0.5625 -5.359375 C 0.457031 -5.441406 0.296875 -5.484375 0.078125 -5.484375 L 0.046875 -5.484375 L 0.046875 -5.953125 L 2.703125 -5.953125 L 2.703125 -5.484375 L 2.671875 -5.484375 C 2.234375 -5.484375 2.015625 -5.304688 2.015625 -4.953125 C 2.015625 -4.828125 2.039062 -4.691406 2.09375 -4.546875 L 2.90625 -2.5625 C 2.976562 -2.394531 3.050781 -2.207031 3.125 -2 C 3.195312 -1.800781 3.257812 -1.609375 3.3125 -1.421875 C 3.375 -1.234375 3.414062 -1.078125 3.4375 -0.953125 C 3.488281 -1.171875 3.554688 -1.394531 3.640625 -1.625 C 3.734375 -1.851562 3.816406 -2.078125 3.890625 -2.296875 L 4.625 -4.46875 C 4.695312 -4.644531 4.734375 -4.800781 4.734375 -4.9375 C 4.734375 -5.300781 4.488281 -5.484375 4 -5.484375 L 3.96875 -5.484375 L 3.96875 -5.953125 L 6.28125 -5.953125 L 6.28125 -5.484375 L 6.25 -5.484375 C 6.03125 -5.484375 5.863281 -5.425781 5.75 -5.3125 C 5.644531 -5.207031 5.53125 -4.976562 5.40625 -4.625 L 3.703125 0.046875 C 3.515625 0.585938 3.332031 1.023438 3.15625 1.359375 C 2.976562 1.703125 2.78125 1.96875 2.5625 2.15625 C 2.34375 2.34375 2.066406 2.472656 1.734375 2.546875 C 1.410156 2.628906 1.003906 2.671875 0.515625 2.671875 L 0.421875 2.671875 Z "/>
</g>
<g id="glyph-0-7">
</g>
<g id="glyph-0-8">
<path d="M 3.046875 0.109375 C 2.148438 0.109375 1.484375 -0.101562 1.046875 -0.53125 C 0.617188 -0.957031 0.40625 -1.519531 0.40625 -2.21875 C 0.40625 -2.644531 0.476562 -3 0.625 -3.28125 C 0.769531 -3.5625 0.972656 -3.796875 1.234375 -3.984375 C 1.503906 -4.179688 1.816406 -4.351562 2.171875 -4.5 C 1.890625 -4.832031 1.675781 -5.140625 1.53125 -5.421875 C 1.394531 -5.710938 1.328125 -6.039062 1.328125 -6.40625 C 1.328125 -6.894531 1.488281 -7.289062 1.8125 -7.59375 C 2.144531 -7.894531 2.679688 -8.046875 3.421875 -8.046875 C 3.890625 -8.046875 4.269531 -7.972656 4.5625 -7.828125 C 4.851562 -7.679688 5.0625 -7.488281 5.1875 -7.25 C 5.320312 -7.019531 5.390625 -6.757812 5.390625 -6.46875 C 5.390625 -6.144531 5.328125 -5.867188 5.203125 -5.640625 C 5.078125 -5.410156 4.875 -5.203125 4.59375 -5.015625 C 4.320312 -4.835938 3.960938 -4.648438 3.515625 -4.453125 L 5.53125 -2.3125 C 5.632812 -2.644531 5.703125 -2.976562 5.734375 -3.3125 C 5.765625 -3.65625 5.78125 -3.96875 5.78125 -4.25 L 5.78125 -4.671875 L 7.78125 -4.671875 L 7.78125 -4.203125 L 7.6875 -4.203125 C 7.4375 -4.203125 7.203125 -4.160156 6.984375 -4.078125 C 6.773438 -4.003906 6.617188 -3.796875 6.515625 -3.453125 C 6.453125 -3.210938 6.378906 -2.953125 6.296875 -2.671875 C 6.210938 -2.398438 6.109375 -2.125 5.984375 -1.84375 L 7.015625 -0.75 C 7.117188 -0.632812 7.238281 -0.554688 7.375 -0.515625 C 7.519531 -0.484375 7.742188 -0.46875 8.046875 -0.46875 L 8.140625 -0.46875 L 8.140625 0 L 6.359375 0 L 5.4375 -0.984375 C 5.175781 -0.671875 4.851562 -0.410156 4.46875 -0.203125 C 4.09375 0.00390625 3.617188 0.109375 3.046875 0.109375 Z M 3.140625 -4.875 C 3.566406 -5.070312 3.882812 -5.285156 4.09375 -5.515625 C 4.300781 -5.753906 4.40625 -6.066406 4.40625 -6.453125 C 4.40625 -6.753906 4.328125 -7.003906 4.171875 -7.203125 C 4.015625 -7.398438 3.75 -7.5 3.375 -7.5 C 3.050781 -7.5 2.800781 -7.398438 2.625 -7.203125 C 2.445312 -7.015625 2.359375 -6.757812 2.359375 -6.4375 C 2.359375 -6.15625 2.414062 -5.898438 2.53125 -5.671875 C 2.65625 -5.453125 2.859375 -5.1875 3.140625 -4.875 Z M 3.140625 -0.515625 C 3.578125 -0.515625 3.953125 -0.597656 4.265625 -0.765625 C 4.578125 -0.929688 4.835938 -1.144531 5.046875 -1.40625 L 2.59375 -4.046875 C 2.25 -3.859375 1.976562 -3.617188 1.78125 -3.328125 C 1.582031 -3.046875 1.484375 -2.664062 1.484375 -2.1875 C 1.484375 -1.644531 1.632812 -1.226562 1.9375 -0.9375 C 2.25 -0.65625 2.648438 -0.515625 3.140625 -0.515625 Z "/>
</g>
<g id="glyph-0-9">
<path d="M 4.015625 0.109375 C 3.140625 0.109375 2.453125 -0.0820312 1.953125 -0.46875 C 1.460938 -0.851562 1.21875 -1.5 1.21875 -2.40625 L 1.21875 -6.703125 C 1.21875 -7.035156 1.125 -7.242188 0.9375 -7.328125 C 0.757812 -7.421875 0.550781 -7.46875 0.3125 -7.46875 L 0.171875 -7.46875 L 0.171875 -7.9375 L 3.40625 -7.9375 L 3.40625 -7.46875 L 3.25 -7.46875 C 3 -7.46875 2.785156 -7.421875 2.609375 -7.328125 C 2.429688 -7.234375 2.34375 -7.015625 2.34375 -6.671875 L 2.34375 -2.328125 C 2.34375 -1.679688 2.515625 -1.222656 2.859375 -0.953125 C 3.210938 -0.691406 3.660156 -0.5625 4.203125 -0.5625 C 4.835938 -0.5625 5.304688 -0.722656 5.609375 -1.046875 C 5.910156 -1.367188 6.0625 -1.78125 6.0625 -2.28125 L 6.0625 -6.703125 C 6.0625 -7.035156 5.96875 -7.242188 5.78125 -7.328125 C 5.601562 -7.421875 5.394531 -7.46875 5.15625 -7.46875 L 5.015625 -7.46875 L 5.015625 -7.9375 L 7.796875 -7.9375 L 7.796875 -7.46875 L 7.65625 -7.46875 C 7.40625 -7.46875 7.191406 -7.421875 7.015625 -7.328125 C 6.835938 -7.234375 6.75 -7.015625 6.75 -6.671875 L 6.75 -2.265625 C 6.75 -1.523438 6.515625 -0.941406 6.046875 -0.515625 C 5.578125 -0.0976562 4.898438 0.109375 4.015625 0.109375 Z "/>
</g>
<g id="glyph-0-10">
<path d="M 0.3125 0 L 0.3125 -0.46875 L 0.40625 -0.46875 C 0.65625 -0.46875 0.867188 -0.515625 1.046875 -0.609375 C 1.222656 -0.703125 1.3125 -0.921875 1.3125 -1.265625 L 1.3125 -4.734375 C 1.3125 -5.054688 1.222656 -5.257812 1.046875 -5.34375 C 0.867188 -5.4375 0.660156 -5.484375 0.421875 -5.484375 L 0.359375 -5.484375 L 0.359375 -5.953125 L 2.171875 -5.953125 L 2.3125 -5.0625 L 2.359375 -5.0625 C 2.585938 -5.46875 2.84375 -5.734375 3.125 -5.859375 C 3.414062 -5.992188 3.738281 -6.0625 4.09375 -6.0625 C 4.6875 -6.0625 5.144531 -5.890625 5.46875 -5.546875 C 5.800781 -5.203125 5.96875 -4.648438 5.96875 -3.890625 L 5.96875 -1.265625 C 5.96875 -0.921875 6.039062 -0.703125 6.1875 -0.609375 C 6.34375 -0.515625 6.546875 -0.46875 6.796875 -0.46875 L 6.859375 -0.46875 L 6.859375 0 L 4.921875 0 L 4.921875 -3.828125 C 4.921875 -4.316406 4.828125 -4.691406 4.640625 -4.953125 C 4.460938 -5.222656 4.148438 -5.359375 3.703125 -5.359375 C 3.367188 -5.359375 3.101562 -5.273438 2.90625 -5.109375 C 2.707031 -4.941406 2.566406 -4.71875 2.484375 -4.4375 C 2.398438 -4.164062 2.359375 -3.875 2.359375 -3.5625 L 2.359375 -1.203125 C 2.359375 -0.878906 2.441406 -0.675781 2.609375 -0.59375 C 2.785156 -0.507812 3 -0.46875 3.25 -0.46875 L 3.296875 -0.46875 L 3.296875 0 Z "/>
</g>
<g id="glyph-0-11">
<path d="M 3.1875 0.109375 C 2.382812 0.109375 1.753906 -0.15625 1.296875 -0.6875 C 0.835938 -1.21875 0.609375 -1.96875 0.609375 -2.9375 C 0.609375 -3.96875 0.820312 -4.742188 1.25 -5.265625 C 1.6875 -5.796875 2.296875 -6.0625 3.078125 -6.0625 C 3.796875 -6.0625 4.359375 -5.835938 4.765625 -5.390625 C 5.179688 -4.953125 5.390625 -4.289062 5.390625 -3.40625 L 5.390625 -2.90625 L 1.6875 -2.90625 C 1.695312 -2.09375 1.84375 -1.503906 2.125 -1.140625 C 2.40625 -0.773438 2.8125 -0.59375 3.34375 -0.59375 C 3.726562 -0.59375 4.054688 -0.671875 4.328125 -0.828125 C 4.597656 -0.984375 4.800781 -1.160156 4.9375 -1.359375 C 4.988281 -1.335938 5.035156 -1.296875 5.078125 -1.234375 C 5.117188 -1.171875 5.140625 -1.085938 5.140625 -0.984375 C 5.140625 -0.835938 5.066406 -0.675781 4.921875 -0.5 C 4.785156 -0.332031 4.570312 -0.1875 4.28125 -0.0625 C 4 0.0507812 3.632812 0.109375 3.1875 0.109375 Z M 4.265625 -3.5 C 4.265625 -4.09375 4.171875 -4.566406 3.984375 -4.921875 C 3.804688 -5.285156 3.5 -5.46875 3.0625 -5.46875 C 2.644531 -5.46875 2.320312 -5.296875 2.09375 -4.953125 C 1.875 -4.617188 1.742188 -4.132812 1.703125 -3.5 Z "/>
</g>
<g id="glyph-0-12">
<path d="M 0.359375 0 L 0.359375 -0.46875 L 0.40625 -0.46875 C 0.65625 -0.46875 0.867188 -0.515625 1.046875 -0.609375 C 1.222656 -0.703125 1.3125 -0.921875 1.3125 -1.265625 L 1.3125 -4.734375 C 1.3125 -5.054688 1.21875 -5.257812 1.03125 -5.34375 C 0.851562 -5.4375 0.644531 -5.484375 0.40625 -5.484375 L 0.359375 -5.484375 L 0.359375 -5.953125 L 2.078125 -5.953125 L 2.28125 -4.859375 L 2.34375 -4.859375 C 2.4375 -5.078125 2.539062 -5.28125 2.65625 -5.46875 C 2.769531 -5.65625 2.914062 -5.800781 3.09375 -5.90625 C 3.28125 -6.007812 3.535156 -6.0625 3.859375 -6.0625 C 4.273438 -6.0625 4.578125 -5.988281 4.765625 -5.84375 C 4.960938 -5.707031 5.0625 -5.507812 5.0625 -5.25 C 5.0625 -5.019531 4.984375 -4.832031 4.828125 -4.6875 C 4.671875 -4.539062 4.40625 -4.46875 4.03125 -4.46875 C 4.03125 -4.769531 3.984375 -4.988281 3.890625 -5.125 C 3.804688 -5.257812 3.65625 -5.328125 3.4375 -5.328125 C 3.238281 -5.328125 3.066406 -5.242188 2.921875 -5.078125 C 2.773438 -4.921875 2.660156 -4.71875 2.578125 -4.46875 C 2.503906 -4.21875 2.445312 -3.957031 2.40625 -3.6875 C 2.375 -3.414062 2.359375 -3.171875 2.359375 -2.953125 L 2.359375 -1.203125 C 2.359375 -0.878906 2.445312 -0.675781 2.625 -0.59375 C 2.8125 -0.507812 3.023438 -0.46875 3.265625 -0.46875 L 3.578125 -0.46875 L 3.578125 0 Z "/>
</g>
<g id="glyph-0-13">
<path d="M 4.453125 0.109375 C 3.597656 0.109375 2.882812 -0.0546875 2.3125 -0.390625 C 1.75 -0.734375 1.328125 -1.210938 1.046875 -1.828125 C 0.773438 -2.441406 0.640625 -3.160156 0.640625 -3.984375 C 0.640625 -4.773438 0.785156 -5.476562 1.078125 -6.09375 C 1.367188 -6.707031 1.800781 -7.1875 2.375 -7.53125 C 2.957031 -7.875 3.671875 -8.046875 4.515625 -8.046875 C 5.335938 -8.046875 5.953125 -7.925781 6.359375 -7.6875 C 6.773438 -7.445312 6.984375 -7.148438 6.984375 -6.796875 C 6.984375 -6.554688 6.878906 -6.363281 6.671875 -6.21875 C 6.472656 -6.082031 6.226562 -6.015625 5.9375 -6.015625 C 5.9375 -6.242188 5.890625 -6.46875 5.796875 -6.6875 C 5.710938 -6.90625 5.5625 -7.085938 5.34375 -7.234375 C 5.125 -7.378906 4.835938 -7.453125 4.484375 -7.453125 C 3.535156 -7.453125 2.859375 -7.148438 2.453125 -6.546875 C 2.054688 -5.941406 1.859375 -5.085938 1.859375 -3.984375 C 1.859375 -2.867188 2.066406 -2.007812 2.484375 -1.40625 C 2.910156 -0.8125 3.625 -0.515625 4.625 -0.515625 C 4.84375 -0.515625 5.050781 -0.523438 5.25 -0.546875 C 5.445312 -0.578125 5.625 -0.613281 5.78125 -0.65625 L 5.78125 -2.4375 C 5.78125 -2.769531 5.691406 -2.976562 5.515625 -3.0625 C 5.335938 -3.15625 5.125 -3.203125 4.875 -3.203125 L 4.828125 -3.203125 L 4.828125 -3.671875 L 7.71875 -3.671875 L 7.71875 -3.203125 L 7.671875 -3.203125 C 7.460938 -3.203125 7.28125 -3.15625 7.125 -3.0625 C 6.976562 -2.96875 6.90625 -2.75 6.90625 -2.40625 L 6.90625 -0.40625 C 6.539062 -0.226562 6.160156 -0.0976562 5.765625 -0.015625 C 5.367188 0.0664062 4.929688 0.109375 4.453125 0.109375 Z "/>
</g>
</g>
</defs>
<g fill="rgb(100%, 100%, 100%)" fill-opacity="1">
<use xlink:href="#glyph-0-0" x="30" y="31.876953"/>
<use xlink:href="#glyph-0-1" x="36" y="31.876953"/>
<use xlink:href="#glyph-0-2" x="40" y="31.876953"/>
<use xlink:href="#glyph-0-3" x="46" y="31.876953"/>
<use xlink:href="#glyph-0-4" x="53" y="31.876953"/>
<use xlink:href="#glyph-0-5" x="57" y="31.876953"/>
<use xlink:href="#glyph-0-4" x="60" y="31.876953"/>
<use xlink:href="#glyph-0-1" x="64" y="31.876953"/>
<use xlink:href="#glyph-0-6" x="68" y="31.876953"/>
<use xlink:href="#glyph-0-7" x="74" y="31.876953"/>
<use xlink:href="#glyph-0-8" x="77" y="31.876953"/>
<use xlink:href="#glyph-0-7" x="85" y="31.876953"/>
<use xlink:href="#glyph-0-9" x="88" y="31.876953"/>
<use xlink:href="#glyph-0-10" x="96" y="31.876953"/>
<use xlink:href="#glyph-0-4" x="103" y="31.876953"/>
<use xlink:href="#glyph-0-5" x="107" y="31.876953"/>
<use xlink:href="#glyph-0-2" x="110" y="31.876953"/>
<use xlink:href="#glyph-0-1" x="116" y="31.876953"/>
<use xlink:href="#glyph-0-11" x="120" y="31.876953"/>
<use xlink:href="#glyph-0-12" x="126" y="31.876953"/>
<use xlink:href="#glyph-0-2" x="131" y="31.876953"/>
<use xlink:href="#glyph-0-5" x="137" y="31.876953"/>
<use xlink:href="#glyph-0-7" x="140" y="31.876953"/>
<use xlink:href="#glyph-0-13" x="143" y="31.876953"/>
<use xlink:href="#glyph-0-2" x="151" y="31.876953"/>
<use xlink:href="#glyph-0-4" x="157" y="31.876953"/>
<use xlink:href="#glyph-0-10" x="161" y="31.876953"/>
</g>
</svg>
