<?xml version="1.0" encoding="UTF-8"?>
<svg xmlns="http://www.w3.org/2000/svg" xmlns:xlink="http://www.w3.org/1999/xlink" width="854" height="480" viewBox="0 0 854 480">
<defs>
<g>
<g id="glyph-0-0">
<path d="M 1.671875 0 L 1.671875 -0.46875 L 1.921875 -0.46875 C 2.160156 -0.46875 2.367188 -0.507812 2.546875 -0.59375 C 2.734375 -0.675781 2.828125 -0.878906 2.828125 -1.203125 L 2.828125 -7.375 L 1.765625 -7.375 C 1.441406 -7.375 1.21875 -7.28125 1.09375 -7.09375 C 0.96875 -6.914062 0.890625 -6.707031 0.859375 -6.46875 L 0.796875 -5.984375 L 0.21875 -5.984375 L 0.28125 -7.9375 L 6.53125 -7.9375 L 6.59375 -5.984375 L 6.015625 -5.984375 L 5.953125 -6.46875 C 5.921875 -6.707031 5.84375 -6.914062 5.71875 -7.09375 C 5.59375 -7.28125 5.363281 -7.375 5.03125 -7.375 L 3.953125 -7.375 L 3.953125 -1.265625 C 3.953125 -0.921875 4.039062 -0.703125 4.21875 -0.609375 C 4.394531 -0.515625 4.609375 -0.46875 4.859375 -0.46875 L 5.125 -0.46875 L 5.125 0 Z "/>
</g>
<g id="glyph-0-1">
<path d="M 0.828125 -4.90625 C 0.753906 -5.132812 0.65625 -5.285156 0.53125 -5.359375 C 0.414062 -5.441406 0.253906 -5.484375 0.046875 -5.484375 L 0.015625 -5.484375 L 0.015625 -5.953125 L 2.75 -5.953125 L 2.75 -5.484375 L 2.609375 -5.484375 C 2.390625 -5.484375 2.222656 -5.453125 2.109375 -5.390625 C 1.992188 -5.328125 1.9375 -5.203125 1.9375 -5.015625 C 1.9375 -4.960938 1.945312 -4.890625 1.96875 -4.796875 C 1.988281 -4.710938 2.007812 -4.628906 2.03125 -4.546875 L 2.5625 -2.671875 C 2.613281 -2.492188 2.660156 -2.296875 2.703125 -2.078125 C 2.753906 -1.859375 2.800781 -1.648438 2.84375 -1.453125 C 2.882812 -1.265625 2.914062 -1.109375 2.9375 -0.984375 L 2.984375 -0.984375 C 3.015625 -1.160156 3.070312 -1.398438 3.15625 -1.703125 C 3.238281 -2.003906 3.332031 -2.289062 3.4375 -2.5625 L 4.59375 -5.921875 L 5.28125 -5.921875 L 6.40625 -2.640625 C 6.457031 -2.453125 6.515625 -2.253906 6.578125 -2.046875 C 6.648438 -1.835938 6.710938 -1.640625 6.765625 -1.453125 C 6.816406 -1.265625 6.851562 -1.109375 6.875 -0.984375 L 6.90625 -0.984375 C 6.976562 -1.359375 7.125 -1.894531 7.34375 -2.59375 L 7.90625 -4.390625 C 7.925781 -4.484375 7.945312 -4.582031 7.96875 -4.6875 C 7.988281 -4.800781 8 -4.882812 8 -4.9375 C 8 -5.300781 7.753906 -5.484375 7.265625 -5.484375 L 7.1875 -5.484375 L 7.1875 -5.953125 L 9.5625 -5.953125 L 9.5625 -5.484375 L 9.421875 -5.484375 C 9.203125 -5.484375 9.035156 -5.429688 8.921875 -5.328125 C 8.804688 -5.222656 8.695312 -4.988281 8.59375 -4.625 L 7.15625 0 L 6.265625 0 L 4.75 -4.640625 L 3.171875 0 L 2.28125 0 Z "/>
</g>
<g id="glyph-0-2">
<path d="M 3.1875 0.109375 C 2.382812 0.109375 1.753906 -0.144531 1.296875 -0.65625 C 0.835938 -1.164062 0.609375 -1.941406 0.609375 -2.984375 C 0.609375 -4.023438 0.828125 -4.796875 1.265625 -5.296875 C 1.710938 -5.804688 2.363281 -6.0625 3.21875 -6.0625 C 4.019531 -6.0625 4.648438 -5.804688 5.109375 -5.296875 C 5.566406 -4.796875 5.796875 -4.023438 5.796875 -2.984375 C 5.796875 -1.941406 5.578125 -1.164062 5.140625 -0.65625 C 4.703125 -0.144531 4.050781 0.109375 3.1875 0.109375 Z M 3.203125 -0.46875 C 3.765625 -0.46875 4.15625 -0.679688 4.375 -1.109375 C 4.601562 -1.535156 4.71875 -2.160156 4.71875 -2.984375 C 4.71875 -3.816406 4.601562 -4.441406 4.375 -4.859375 C 4.144531 -5.273438 3.753906 -5.484375 3.203125 -5.484375 C 2.640625 -5.484375 2.242188 -5.273438 2.015625 -4.859375 C 1.796875 -4.441406 1.6875 -3.816406 1.6875 -2.984375 C 1.6875 -2.160156 1.800781 -1.535156 2.03125 -1.109375 C 2.257812 -0.679688 2.648438 -0.46875 3.203125 -0.46875 Z "/>
</g>
<g id="glyph-0-3">
<path d="M 0.28125 -2.609375 L 0.28125 -3.4375 L 3.171875 -3.4375 L 3.171875 -2.609375 Z "/>
</g>
<g id="glyph-0-4">
<path d="M 0.421875 0 L 0.421875 -0.46875 L 0.5625 -0.46875 C 0.8125 -0.46875 1.023438 -0.515625 1.203125 -0.609375 C 1.390625 -0.703125 1.484375 -0.921875 1.484375 -1.265625 L 1.484375 -6.703125 C 1.484375 -7.035156 1.390625 -7.242188 1.203125 -7.328125 C 1.023438 -7.421875 0.8125 -7.46875 0.5625 -7.46875 L 0.421875 -7.46875 L 0.421875 -7.9375 L 3.546875 -7.9375 C 4.472656 -7.9375 5.160156 -7.726562 5.609375 -7.3125 C 6.054688 -6.90625 6.28125 -6.335938 6.28125 -5.609375 C 6.28125 -5.171875 6.179688 -4.757812 5.984375 -4.375 C 5.796875 -3.988281 5.484375 -3.675781 5.046875 -3.4375 C 4.617188 -3.207031 4.035156 -3.09375 3.296875 -3.09375 L 2.59375 -3.09375 L 2.59375 -1.203125 C 2.59375 -0.878906 2.679688 -0.675781 2.859375 -0.59375 C 3.046875 -0.507812 3.265625 -0.46875 3.515625 -0.46875 L 3.875 -0.46875 L 3.875 0 Z M 3.1875 -3.609375 C 3.863281 -3.609375 4.347656 -3.757812 4.640625 -4.0625 C 4.929688 -4.363281 5.078125 -4.863281 5.078125 -5.5625 C 5.078125 -6.1875 4.945312 -6.648438 4.6875 -6.953125 C 4.425781 -7.253906 3.984375 -7.40625 3.359375 -7.40625 L 2.59375 -7.40625 L 2.59375 -3.609375 Z "/>
</g>
<g id="glyph-0-5">
<path d="M 0.359375 0 L 0.359375 -0.46875 L 0.40625 -0.46875 C 0.65625 -0.46875 0.867188 -0.515625 1.046875 -0.609375 C 1.222656 -0.703125 1.3125 -0.921875 1.3125 -1.265625 L 1.3125 -4.734375 C 1.3125 -5.054688 1.21875 -5.257812 1.03125 -5.34375 C 0.851562 -5.4375 0.644531 -5.484375 0.40625 -5.484375 L 0.359375 -5.484375 L 0.359375 -5.953125 L 2.078125 -5.953125 L 2.28125 -4.859375 L 2.34375 -4.859375 C 2.4375 -5.078125 2.539062 -5.28125 2.65625 -5.46875 C 2.769531 -5.65625 2.914062 -5.800781 3.09375 -5.90625 C 3.28125 -6.007812 3.535156 -6.0625 3.859375 -6.0625 C 4.273438 -6.0625 4.578125 -5.988281 4.765625 -5.84375 C 4.960938 -5.707031 5.0625 -5.507812 5.0625 -5.25 C 5.0625 -5.019531 4.984375 -4.832031 4.828125 -4.6875 C 4.671875 -4.539062 4.40625 -4.46875 4.03125 -4.46875 C 4.03125 -4.769531 3.984375 -4.988281 3.890625 -5.125 C 3.804688 -5.257812 3.65625 -5.328125 3.4375 -5.328125 C 3.238281 -5.328125 3.066406 -5.242188 2.921875 -5.078125 C 2.773438 -4.921875 2.660156 -4.71875 2.578125 -4.46875 C 2.503906 -4.21875 2.445312 -3.957031 2.40625 -3.6875 C 2.375 -3.414062 2.359375 -3.171875 2.359375 -2.953125 L 2.359375 -1.203125 C 2.359375 -0.878906 2.445312 -0.675781 2.625 -0.59375 C 2.8125 -0.507812 3.023438 -0.46875 3.265625 -0.46875 L 3.578125 -0.46875 L 3.578125 0 Z "/>
</g>
<g id="glyph-0-6">
<path d="M 2.671875 0.109375 C 2.109375 0.109375 1.695312 -0.015625 1.4375 -0.265625 C 1.1875 -0.523438 1.0625 -0.972656 1.0625 -1.609375 L 1.0625 -5.328125 L 0.21875 -5.328125 L 0.21875 -5.765625 C 0.34375 -5.765625 0.488281 -5.789062 0.65625 -5.84375 C 0.820312 -5.90625 0.960938 -6 1.078125 -6.125 C 1.203125 -6.257812 1.304688 -6.421875 1.390625 -6.609375 C 1.472656 -6.804688 1.539062 -7.046875 1.59375 -7.328125 L 2.09375 -7.328125 L 2.09375 -5.953125 L 3.5625 -5.953125 L 3.5625 -5.328125 L 2.09375 -5.328125 L 2.09375 -1.578125 C 2.09375 -1.203125 2.171875 -0.925781 2.328125 -0.75 C 2.484375 -0.570312 2.6875 -0.484375 2.9375 -0.484375 C 3.070312 -0.484375 3.195312 -0.488281 3.3125 -0.5 C 3.425781 -0.507812 3.539062 -0.53125 3.65625 -0.5625 L 3.65625 -0.0625 C 3.5625 -0.0195312 3.414062 0.015625 3.21875 0.046875 C 3.03125 0.0859375 2.847656 0.109375 2.671875 0.109375 Z "/>
</g>
<g id="glyph-0-7">
</g>
<g id="glyph-0-8">
<path d="M 0.421875 0 L 0.421875 -0.46875 L 0.5625 -0.46875 C 0.8125 -0.46875 1.023438 -0.515625 1.203125 -0.609375 C 1.390625 -0.703125 1.484375 -0.921875 1.484375 -1.265625 L 1.484375 -6.703125 C 1.484375 -7.035156 1.390625 -7.242188 1.203125 -7.328125 C 1.023438 -7.421875 0.8125 -7.46875 0.5625 -7.46875 L 0.421875 -7.46875 L 0.421875 -7.9375 L 2.453125 -7.9375 L 6.4375 -1.78125 L 6.4375 -6.703125 C 6.4375 -7.035156 6.34375 -7.242188 6.15625 -7.328125 C 5.976562 -7.421875 5.765625 -7.46875 5.515625 -7.46875 L 5.375 -7.46875 L 5.375 -7.9375 L 8.171875 -7.9375 L 8.171875 -7.46875 L 8.015625 -7.46875 C 7.765625 -7.46875 7.550781 -7.421875 7.375 -7.328125 C 7.195312 -7.234375 7.109375 -7.015625 7.109375 -6.671875 L 7.109375 0 L 6.328125 0 L 2.15625 -6.40625 L 2.15625 -1.265625 C 2.15625 -0.921875 2.242188 -0.703125 2.421875 -0.609375 C 2.597656 -0.515625 2.8125 -0.46875 3.0625 -0.46875 L 3.203125 -0.46875 L 3.203125 0 Z "/>
</g>
<g id="glyph-0-9">
<path d="M 3.1875 0.109375 C 2.382812 0.109375 1.753906 -0.15625 1.296875 -0.6875 C 0.835938 -1.21875 0.609375 -1.96875 0.609375 -2.9375 C 0.609375 -3.96875 0.820312 -4.742188 1.25 -5.265625 C 1.6875 -5.796875 2.296875 -6.0625 3.078125 -6.0625 C 3.796875 -6.0625 4.359375 -5.835938 4.765625 -5.390625 C 5.179688 -4.953125 5.390625 -4.289062 5.390625 -3.40625 L 5.390625 -2.90625 L 1.6875 -2.90625 C 1.695312 -2.09375 1.84375 -1.503906 2.125 -1.140625 C 2.40625 -0.773438 2.8125 -0.59375 3.34375 -0.59375 C 3.726562 -0.59375 4.054688 -0.671875 4.328125 -0.828125 C 4.597656 -0.984375 4.800781 -1.160156 4.9375 -1.359375 C 4.988281 -1.335938 5.035156 -1.296875 5.078125 -1.234375 C 5.117188 -1.171875 5.140625 -1.085938 5.140625 -0.984375 C 5.140625 -0.835938 5.066406 -0.675781 4.921875 -0.5 C 4.785156 -0.332031 4.570312 -0.1875 4.28125 -0.0625 C 4 0.0507812 3.632812 0.109375 3.1875 0.109375 Z M 4.265625 -3.5 C 4.265625 -4.09375 4.171875 -4.566406 3.984375 -4.921875 C 3.804688 -5.285156 3.5 -5.46875 3.0625 -5.46875 C 2.644531 -5.46875 2.320312 -5.296875 2.09375 -4.953125 C 1.875 -4.617188 1.742188 -4.132812 1.703125 -3.5 Z "/>
</g>
<g id="glyph-0-10">
<path d="M 0.203125 0 L 0.203125 -0.46875 L 0.28125 -0.46875 C 0.539062 -0.46875 0.757812 -0.515625 0.9375 -0.609375 C 1.113281 -0.703125 1.203125 -0.921875 1.203125 -1.265625 L 1.203125 -7.21875 C 1.203125 -7.539062 1.109375 -7.742188 0.921875 -7.828125 C 0.742188 -7.921875 0.53125 -7.96875 0.28125 -7.96875 L 0.203125 -7.96875 L 0.203125 -8.4375 L 2.25 -8.4375 L 2.25 -4.15625 C 2.25 -4.0625 2.242188 -3.9375 2.234375 -3.78125 C 2.234375 -3.625 2.226562 -3.46875 2.21875 -3.3125 C 2.207031 -3.15625 2.203125 -3.019531 2.203125 -2.90625 C 2.203125 -2.800781 2.203125 -2.75 2.203125 -2.75 L 3.59375 -4.28125 C 3.820312 -4.539062 3.976562 -4.742188 4.0625 -4.890625 C 4.15625 -5.035156 4.203125 -5.160156 4.203125 -5.265625 C 4.203125 -5.359375 4.15625 -5.414062 4.0625 -5.4375 C 3.976562 -5.46875 3.84375 -5.484375 3.65625 -5.484375 L 3.65625 -5.953125 L 6.109375 -5.953125 L 6.109375 -5.484375 C 5.859375 -5.484375 5.609375 -5.390625 5.359375 -5.203125 C 5.109375 -5.023438 4.835938 -4.773438 4.546875 -4.453125 L 3.765625 -3.578125 L 5.25 -1.375 C 5.4375 -1.082031 5.625 -0.859375 5.8125 -0.703125 C 6 -0.546875 6.222656 -0.46875 6.484375 -0.46875 L 6.515625 -0.46875 L 6.515625 0 L 6.359375 0 C 6.035156 0 5.765625 -0.0078125 5.546875 -0.03125 C 5.335938 -0.0507812 5.160156 -0.0976562 5.015625 -0.171875 C 4.867188 -0.242188 4.726562 -0.351562 4.59375 -0.5 C 4.46875 -0.644531 4.328125 -0.835938 4.171875 -1.078125 L 3.0625 -2.828125 L 2.25 -2.203125 L 2.25 -1.203125 C 2.25 -0.878906 2.335938 -0.675781 2.515625 -0.59375 C 2.691406 -0.507812 2.90625 -0.46875 3.15625 -0.46875 L 3.1875 -0.46875 L 3.1875 0 Z "/>
</g>
<g id="glyph-0-11">
<path d="M 2.328125 0.109375 C 1.773438 0.109375 1.332031 0.0078125 1 -0.1875 C 0.664062 -0.382812 0.5 -0.675781 0.5 -1.0625 C 0.5 -1.257812 0.539062 -1.414062 0.625 -1.53125 C 0.707031 -1.644531 0.800781 -1.722656 0.90625 -1.765625 C 1.007812 -1.804688 1.109375 -1.828125 1.203125 -1.828125 C 1.203125 -1.441406 1.285156 -1.109375 1.453125 -0.828125 C 1.628906 -0.554688 1.945312 -0.421875 2.40625 -0.421875 C 2.789062 -0.421875 3.085938 -0.515625 3.296875 -0.703125 C 3.515625 -0.890625 3.625 -1.132812 3.625 -1.4375 C 3.625 -1.613281 3.582031 -1.757812 3.5 -1.875 C 3.425781 -2 3.289062 -2.117188 3.09375 -2.234375 C 2.894531 -2.347656 2.613281 -2.484375 2.25 -2.640625 C 1.875 -2.816406 1.5625 -2.984375 1.3125 -3.140625 C 1.0625 -3.296875 0.875 -3.476562 0.75 -3.6875 C 0.632812 -3.90625 0.578125 -4.171875 0.578125 -4.484375 C 0.578125 -4.992188 0.765625 -5.378906 1.140625 -5.640625 C 1.523438 -5.910156 2.035156 -6.046875 2.671875 -6.046875 C 3.203125 -6.046875 3.601562 -5.945312 3.875 -5.75 C 4.144531 -5.550781 4.28125 -5.3125 4.28125 -5.03125 C 4.28125 -4.832031 4.210938 -4.671875 4.078125 -4.546875 C 3.941406 -4.421875 3.742188 -4.359375 3.484375 -4.359375 C 3.484375 -4.734375 3.40625 -5.023438 3.25 -5.234375 C 3.09375 -5.441406 2.851562 -5.546875 2.53125 -5.546875 C 2.15625 -5.546875 1.882812 -5.460938 1.71875 -5.296875 C 1.5625 -5.128906 1.484375 -4.914062 1.484375 -4.65625 C 1.484375 -4.375 1.585938 -4.15625 1.796875 -4 C 2.003906 -3.851562 2.359375 -3.679688 2.859375 -3.484375 C 3.242188 -3.316406 3.554688 -3.148438 3.796875 -2.984375 C 4.046875 -2.828125 4.226562 -2.640625 4.34375 -2.421875 C 4.457031 -2.203125 4.515625 -1.941406 4.515625 -1.640625 C 4.515625 -1.054688 4.316406 -0.617188 3.921875 -0.328125 C 3.523438 -0.0351562 2.992188 0.109375 2.328125 0.109375 Z "/>
</g>
<g id="glyph-0-12">
<path d="M 3.046875 0.109375 C 2.148438 0.109375 1.484375 -0.101562 1.046875 -0.53125 C 0.617188 -0.957031 0.40625 -1.519531 0.40625 -2.21875 C 0.40625 -2.644531 0.476562 -3 0.625 -3.28125 C 0.769531 -3.5625 0.972656 -3.796875 1.234375 -3.984375 C 1.503906 -4.179688 1.816406 -4.351562 2.171875 -4.5 C 1.890625 -4.832031 1.675781 -5.140625 1.53125 -5.421875 C 1.394531 -5.710938 1.328125 -6.039062 1.328125 -6.40625 C 1.328125 -6.894531 1.488281 -7.289062 1.8125 -7.59375 C 2.144531 -7.894531 2.679688 -8.046875 3.421875 -8.046875 C 3.890625 -8.046875 4.269531 -7.972656 4.5625 -7.828125 C 4.851562 -7.679688 5.0625 -7.488281 5.1875 -7.25 C 5.320312 -7.019531 5.390625 -6.757812 5.390625 -6.46875 C 5.390625 -6.144531 5.328125 -5.867188 5.203125 -5.640625 C 5.078125 -5.410156 4.875 -5.203125 4.59375 -5.015625 C 4.320312 -4.835938 3.960938 -4.648438 3.515625 -4.453125 L 5.53125 -2.3125 C 5.632812 -2.644531 5.703125 -2.976562 5.734375 -3.3125 C 5.765625 -3.65625 5.78125 -3.96875 5.78125 -4.25 L 5.78125 -4.671875 L 7.78125 -4.671875 L 7.78125 -4.203125 L 7.6875 -4.203125 C 7.4375 -4.203125 7.203125 -4.160156 6.984375 -4.078125 C 6.773438 -4.003906 6.617188 -3.796875 6.515625 -3.453125 C 6.453125 -3.210938 6.378906 -2.953125 6.296875 -2.671875 C 6.210938 -2.398438 6.109375 -2.125 5.984375 -1.84375 L 7.015625 -0.75 C 7.117188 -0.632812 7.238281 -0.554688 7.375 -0.515625 C 7.519531 -0.484375 7.742188 -0.46875 8.046875 -0.46875 L 8.140625 -0.46875 L 8.140625 0 L 6.359375 0 L 5.4375 -0.984375 C 5.175781 -0.671875 4.851562 -0.410156 4.46875 -0.203125 C 4.09375 0.00390625 3.617188 0.109375 3.046875 0.109375 Z M 3.140625 -4.875 C 3.566406 -5.070312 3.882812 -5.285156 4.09375 -5.515625 C 4.300781 -5.753906 4.40625 -6.066406 4.40625 -6.453125 C 4.40625 -6.753906 4.328125 -7.003906 4.171875 -7.203125 C 4.015625 -7.398438 3.75 -7.5 3.375 -7.5 C 3.050781 -7.5 2.800781 -7.398438 2.625 -7.203125 C 2.445312 -7.015625 2.359375 -6.757812 2.359375 -6.4375 C 2.359375 -6.15625 2.414062 -5.898438 2.53125 -5.671875 C 2.65625 -5.453125 2.859375 -5.1875 3.140625 -4.875 Z M 3.140625 -0.515625 C 3.578125 -0.515625 3.953125 -0.597656 4.265625 -0.765625 C 4.578125 -0.929688 4.835938 -1.144531 5.046875 -1.40625 L 2.59375 -4.046875 C 2.25 -3.859375 1.976562 -3.617188 1.78125 -3.328125 C 1.582031 -3.046875 1.484375 -2.664062 1.484375 -2.1875 C 1.484375 -1.644531 1.632812 -1.226562 1.9375 -0.9375 C 2.25 -0.65625 2.648438 -0.515625 3.140625 -0.515625 Z "/>
</g>
<g id="glyph-0-13">
<path d="M 2.75 0.109375 C 2.019531 0.109375 1.46875 -0.03125 1.09375 -0.3125 C 0.71875 -0.601562 0.53125 -0.984375 0.53125 -1.453125 C 0.53125 -1.671875 0.597656 -1.847656 0.734375 -1.984375 C 0.878906 -2.128906 1.078125 -2.203125 1.328125 -2.203125 C 1.347656 -1.898438 1.410156 -1.613281 1.515625 -1.34375 C 1.617188 -1.070312 1.773438 -0.851562 1.984375 -0.6875 C 2.203125 -0.519531 2.484375 -0.4375 2.828125 -0.4375 C 3.328125 -0.4375 3.71875 -0.554688 4 -0.796875 C 4.28125 -1.035156 4.421875 -1.378906 4.421875 -1.828125 C 4.421875 -2.109375 4.363281 -2.34375 4.25 -2.53125 C 4.144531 -2.71875 3.96875 -2.890625 3.71875 -3.046875 C 3.476562 -3.210938 3.140625 -3.382812 2.703125 -3.5625 C 2.015625 -3.84375 1.5 -4.171875 1.15625 -4.546875 C 0.820312 -4.929688 0.65625 -5.425781 0.65625 -6.03125 C 0.65625 -6.457031 0.757812 -6.816406 0.96875 -7.109375 C 1.175781 -7.410156 1.460938 -7.640625 1.828125 -7.796875 C 2.203125 -7.960938 2.625 -8.046875 3.09375 -8.046875 C 3.75 -8.046875 4.257812 -7.914062 4.625 -7.65625 C 4.988281 -7.40625 5.171875 -7.117188 5.171875 -6.796875 C 5.171875 -6.554688 5.085938 -6.375 4.921875 -6.25 C 4.765625 -6.132812 4.550781 -6.078125 4.28125 -6.078125 C 4.28125 -6.304688 4.242188 -6.523438 4.171875 -6.734375 C 4.097656 -6.953125 3.96875 -7.128906 3.78125 -7.265625 C 3.601562 -7.410156 3.359375 -7.484375 3.046875 -7.484375 C 2.617188 -7.484375 2.285156 -7.367188 2.046875 -7.140625 C 1.804688 -6.910156 1.6875 -6.601562 1.6875 -6.21875 C 1.6875 -5.925781 1.738281 -5.675781 1.84375 -5.46875 C 1.957031 -5.269531 2.140625 -5.085938 2.390625 -4.921875 C 2.640625 -4.765625 2.976562 -4.597656 3.40625 -4.421875 C 4.0625 -4.148438 4.570312 -3.84375 4.9375 -3.5 C 5.300781 -3.15625 5.484375 -2.695312 5.484375 -2.125 C 5.484375 -1.414062 5.234375 -0.863281 4.734375 -0.46875 C 4.242188 -0.0820312 3.582031 0.109375 2.75 0.109375 Z "/>
</g>
<g id="glyph-0-14">
<path d="M 2.28125 0.109375 C 1.78125 0.109375 1.367188 -0.03125 1.046875 -0.3125 C 0.722656 -0.601562 0.5625 -1.054688 0.5625 -1.671875 C 0.5625 -2.265625 0.769531 -2.703125 1.1875 -2.984375 C 1.601562 -3.265625 2.238281 -3.414062 3.09375 -3.4375 L 4.015625 -3.484375 L 4.015625 -4.140625 C 4.015625 -4.410156 3.988281 -4.644531 3.9375 -4.84375 C 3.894531 -5.050781 3.800781 -5.210938 3.65625 -5.328125 C 3.507812 -5.453125 3.285156 -5.515625 2.984375 -5.515625 C 2.703125 -5.515625 2.484375 -5.460938 2.328125 -5.359375 C 2.179688 -5.253906 2.082031 -5.109375 2.03125 -4.921875 C 1.988281 -4.742188 1.96875 -4.535156 1.96875 -4.296875 C 1.65625 -4.296875 1.414062 -4.347656 1.25 -4.453125 C 1.09375 -4.566406 1.015625 -4.75 1.015625 -5 C 1.015625 -5.257812 1.101562 -5.46875 1.28125 -5.625 C 1.46875 -5.78125 1.710938 -5.890625 2.015625 -5.953125 C 2.328125 -6.023438 2.660156 -6.0625 3.015625 -6.0625 C 3.703125 -6.0625 4.210938 -5.914062 4.546875 -5.625 C 4.890625 -5.34375 5.0625 -4.847656 5.0625 -4.140625 L 5.0625 -1.265625 C 5.0625 -0.953125 5.109375 -0.738281 5.203125 -0.625 C 5.304688 -0.519531 5.488281 -0.46875 5.75 -0.46875 L 5.78125 -0.46875 L 5.78125 0 L 4.28125 0 L 4.09375 -0.953125 L 4.015625 -0.953125 C 3.859375 -0.742188 3.703125 -0.5625 3.546875 -0.40625 C 3.398438 -0.25 3.226562 -0.125 3.03125 -0.03125 C 2.84375 0.0625 2.59375 0.109375 2.28125 0.109375 Z M 2.53125 -0.578125 C 2.976562 -0.578125 3.335938 -0.710938 3.609375 -0.984375 C 3.878906 -1.265625 4.015625 -1.644531 4.015625 -2.125 L 4.015625 -3.015625 L 3.296875 -2.984375 C 2.671875 -2.953125 2.238281 -2.820312 2 -2.59375 C 1.757812 -2.375 1.640625 -2.046875 1.640625 -1.609375 C 1.640625 -0.921875 1.9375 -0.578125 2.53125 -0.578125 Z "/>
</g>
<g id="glyph-0-15">
<path d="M 0.3125 0 L 0.3125 -0.46875 L 0.453125 -0.46875 C 0.703125 -0.46875 0.90625 -0.515625 1.0625 -0.609375 C 1.226562 -0.703125 1.3125 -0.921875 1.3125 -1.265625 L 1.3125 -4.734375 C 1.3125 -5.054688 1.226562 -5.257812 1.0625 -5.34375 C 0.90625 -5.4375 0.703125 -5.484375 0.453125 -5.484375 L 0.421875 -5.484375 L 0.421875 -5.953125 L 2.171875 -5.953125 L 2.3125 -5.0625 L 2.359375 -5.0625 C 2.585938 -5.46875 2.835938 -5.734375 3.109375 -5.859375 C 3.390625 -5.992188 3.703125 -6.0625 4.046875 -6.0625 C 4.398438 -6.0625 4.71875 -5.984375 5 -5.828125 C 5.289062 -5.679688 5.507812 -5.425781 5.65625 -5.0625 L 5.75 -5.0625 C 5.96875 -5.46875 6.226562 -5.734375 6.53125 -5.859375 C 6.832031 -5.992188 7.148438 -6.0625 7.484375 -6.0625 C 8.054688 -6.0625 8.5 -5.890625 8.8125 -5.546875 C 9.132812 -5.203125 9.296875 -4.648438 9.296875 -3.890625 L 9.296875 -1.265625 C 9.296875 -0.921875 9.375 -0.703125 9.53125 -0.609375 C 9.695312 -0.515625 9.90625 -0.46875 10.15625 -0.46875 L 10.1875 -0.46875 L 10.1875 0 L 8.25 0 L 8.25 -3.828125 C 8.25 -4.316406 8.160156 -4.691406 7.984375 -4.953125 C 7.816406 -5.222656 7.519531 -5.359375 7.09375 -5.359375 C 6.78125 -5.359375 6.535156 -5.28125 6.359375 -5.125 C 6.179688 -4.976562 6.050781 -4.773438 5.96875 -4.515625 C 5.894531 -4.265625 5.859375 -3.992188 5.859375 -3.703125 L 5.859375 -1.265625 C 5.859375 -0.921875 5.9375 -0.703125 6.09375 -0.609375 C 6.25 -0.515625 6.453125 -0.46875 6.703125 -0.46875 L 6.75 -0.46875 L 6.75 0 L 4.8125 0 L 4.8125 -3.828125 C 4.8125 -4.316406 4.722656 -4.691406 4.546875 -4.953125 C 4.367188 -5.222656 4.066406 -5.359375 3.640625 -5.359375 C 3.328125 -5.359375 3.070312 -5.273438 2.875 -5.109375 C 2.6875 -4.941406 2.550781 -4.71875 2.46875 -4.4375 C 2.394531 -4.164062 2.359375 -3.875 2.359375 -3.5625 L 2.359375 -1.203125 C 2.359375 -0.878906 2.445312 -0.675781 2.625 -0.59375 C 2.8125 -0.507812 3.023438 -0.46875 3.265625 -0.46875 L 3.296875 -0.46875 L 3.296875 0 Z "/>
</g>
</g>
</defs>
<g fill="rgb(100%, 100%, 100%)" fill-opacity="1">
<use xlink:href="#glyph-0-0" x="30" y="31.876953"/>
<use xlink:href="#glyph-0-1" x="37" y="31.876953"/>
<use xlink:href="#glyph-0-2" x="47" y="31.876953"/>
<use xlink:href="#glyph-0-3" x="53" y="31.876953"/>
<use xlink:href="#glyph-0-4" x="56" y="31.876953"/>
<use xlink:href="#glyph-0-2" x="63" y="31.876953"/>
<use xlink:href="#glyph-0-5" x="69" y="31.876953"/>
<use xlink:href="#glyph-0-6" x="74" y="31.876953"/>
<use xlink:href="#glyph-0-7" x="78" y="31.876953"/>
<use xlink:href="#glyph-0-8" x="81" y="31.876953"/>
<use xlink:href="#glyph-0-9" x="89" y="31.876953"/>
<use xlink:href="#glyph-0-6" x="95" y="31.876953"/>
<use xlink:href="#glyph-0-1" x="99" y="31.876953"/>
<use xlink:href="#glyph-0-2" x="109" y="31.876953"/>
<use xlink:href="#glyph-0-5" x="115" y="31.876953"/>
<use xlink:href="#glyph-0-10" x="120" y="31.876953"/>
<use xlink:href="#glyph-0-11" x="127" y="31.876953"/>
<use xlink:href="#glyph-0-7" x="132" y="31.876953"/>
<use xlink:href="#glyph-0-12" x="135" y="31.876953"/>
<use xlink:href="#glyph-0-7" x="143" y="31.876953"/>
<use xlink:href="#glyph-0-13" x="146" y="31.876953"/>
<use xlink:href="#glyph-0-3" x="152" y="31.876953"/>
<use xlink:href="#glyph-0-4" x="155" y="31.876953"/>
<use xlink:href="#glyph-0-14" x="162" y="31.876953"/>
<use xlink:href="#glyph-0-5" x="168" y="31.876953"/>
<use xlink:href="#glyph-0-14" x="173" y="31.876953"/>
<use xlink:href="#glyph-0-15" x="179" y="31.876953"/>
<use xlink:href="#glyph-0-9" x="189" y="31.876953"/>
<use xlink:href="#glyph-0-6" x="195" y="31.876953"/>
<use xlink:href="#glyph-0-9" x="199" y="31.876953"/>
<use xlink:href="#glyph-0-5" x="205" y="31.876953"/>
<use xlink:href="#glyph-0-11" x="210" y="31.876953"/>
</g>
</svg>
